<?xml version="1.0" encoding="UTF-8" standalone="no"?>
<!-- Created with Inkscape (http://www.inkscape.org/) -->

<svg
   width="37.348049mm"
   height="28.279539mm"
   viewBox="0 0 37.348049 28.279539"
   version="1.1"
   id="svg1"
   xmlns="http://www.w3.org/2000/svg"
   xmlns:svg="http://www.w3.org/2000/svg">
  <defs
     id="defs1" />
  <g
     id="layer1"
     transform="translate(-40.424563,-54.75126)">
    <g
       id="g18"
       transform="matrix(0.34083199,0,0,0.34083199,29.375984,37.72177)"
       style="opacity:1;fill:#000000;stroke-width:2.93407">
      <path
         id="rect108"
         style="opacity:0.2375;fill:none;fill-opacity:0.943794;fill-rule:evenodd;stroke:#ff5555;stroke-width:0.2934;stroke-linecap:butt;stroke-dasharray:none;stroke-dashoffset:0;stroke-opacity:1"
         d="m 122.67969,50.122701 c -24.878159,0.0079 -49.757471,-0.04661 -74.634879,0.05636 -7.568782,0.521677 -14.388363,7.822755 -15.265514,16.615923 -0.416743,3.97548 -0.08002,7.9867 -0.195313,11.977987 0.02037,12.143458 -0.06462,24.290199 0.08017,36.431479 0.609538,8.80341 7.061637,16.60386 14.670299,17.38969 3.390025,0.39185 6.800424,0.0515 10.199529,0.17279 22.945598,-0.009 45.892368,0.0413 68.837208,-0.0567 7.59485,-0.52229 14.4332,-7.87938 15.27152,-16.70878 0.39976,-3.98563 0.0734,-8.00301 0.18541,-12.00296 -0.0203,-12.101097 0.0644,-24.205421 -0.08,-36.304367 -0.59861,-8.736842 -6.94633,-16.458164 -14.4691,-17.388193 -1.52544,-0.220458 -3.06518,-0.204382 -4.59935,-0.183183 z" />
    </g>
  </g>
</svg>
