<?xml version="1.0" encoding="UTF-8" standalone="no"?>
<!-- Created with Inkscape (http://www.inkscape.org/) -->

<svg
   width="38.000008mm"
   height="29.000019mm"
   viewBox="0 0 38.000008 29.000019"
   version="1.1"
   id="svg1"
   xmlns="http://www.w3.org/2000/svg"
   xmlns:svg="http://www.w3.org/2000/svg">
  <defs
     id="defs1" />
  <g
     id="layer1"
     transform="translate(-39.895395,-54.585876)">
    <g
       id="g18"
       transform="matrix(0.34083199,0,0,0.34083199,29.375984,37.72177)"
       style="opacity:1;fill:#000000;stroke-width:2.93407">
      <path
         id="rect108"
         style="opacity:0.2375;fill:none;fill-opacity:0.943794;fill-rule:evenodd;stroke:#ff5555;stroke-width:0.2934;stroke-linecap:butt;stroke-dasharray:none;stroke-dashoffset:0;stroke-opacity:1"
         d="m 122.70445,49.637818 c -25.313607,0.0081 -50.628393,-0.0478 -75.94124,0.0578 -7.701261,0.535014 -14.640207,8.022759 -15.532711,17.040742 -0.424038,4.077121 -0.08142,8.190896 -0.198732,12.284228 0.02073,12.45393 -0.06575,24.911222 0.08157,37.362922 0.620207,9.02849 7.18524,17.02837 14.927079,17.83429 3.449362,0.40187 6.919454,0.0528 10.378055,0.17721 23.347225,-0.009 46.695649,0.0424 70.042099,-0.0582 7.72779,-0.53564 14.68583,-8.08083 15.53882,-17.13597 0.40676,-4.08753 0.0747,-8.20763 0.18866,-12.30984 -0.0207,-12.410488 0.0655,-24.824283 -0.0814,-37.232563 -0.60909,-8.960216 -7.06791,-16.87895 -14.72236,-17.832757 -1.55214,-0.226094 -3.11883,-0.209607 -4.67986,-0.187866 z" />
    </g>
  </g>
</svg>
