<?xml version="1.0" encoding="UTF-8" standalone="no"?>
<!-- Created with Inkscape (http://www.inkscape.org/) -->

<svg
   width="28.476309mm"
   height="13.541947mm"
   viewBox="0 0 28.476309 13.541947"
   version="1.1"
   id="svg1"
   xmlns="http://www.w3.org/2000/svg"
   xmlns:svg="http://www.w3.org/2000/svg">
  <defs
     id="defs1" />
  <g
     id="layer1"
     transform="translate(-45.328162,-59.867345)">
    <g
       id="g18"
       transform="matrix(0.34083199,0,0,0.34083199,29.375984,37.72177)"
       style="opacity:1;fill:#000000;stroke-width:2.93407">
      <path
         id="path105"
         style="baseline-shift:baseline;display:inline;overflow:visible;opacity:0.515;fill:#ff00ff;fill-rule:evenodd;stroke:none;stroke-width:14.67;stroke-dasharray:none;stroke-opacity:1;enable-background:accumulate;stop-color:#000000"
         d="m 46.803644,64.975101 c 0.08206,0.336503 0.185036,0.64755 0.301721,0.944582 0.01962,0.04996 0.04161,0.09804 0.06216,0.14707 0.113534,0.270705 0.236425,0.531576 0.37753,0.779319 0.0037,0.0065 0.0069,0.01327 0.01062,0.01971 2.23e-4,3.9e-4 -2.23e-4,0.0011 0,0.0015 0.25382,0.442315 0.541929,0.857082 0.855128,1.288758 2.55e-4,3.52e-4 -2.55e-4,0.0012 0,0.0015 0.313268,0.431746 0.652917,0.879407 1.01281,1.387311 2.58e-4,3.61e-4 -2.56e-4,0.0012 0,0.0015 0,0 1.750361,2.350419 2.289441,3.29012 0.09126,0.159151 0.176806,0.319377 0.254718,0.483663 1.91e-4,4.02e-4 -1.9e-4,0.0011 0,0.0015 0.07787,0.164292 0.150016,0.332034 0.213783,0.507922 1.61e-4,4.46e-4 -1.61e-4,0.0011 0,0.0015 0.127623,0.352299 0.226091,0.734394 0.292622,1.172011 h 1.08104 c -0.03774,-0.270975 -0.08537,-0.52696 -0.142522,-0.771738 -0.171471,-0.734312 -0.428225,-1.361157 -0.758092,-1.936168 -0.507948,-0.88543 -1.147627,-1.662567 -1.867938,-2.679097 0,0 -1.750372,-2.350422 -2.289441,-3.290123 -2.26e-4,-3.93e-4 2.26e-4,-0.0011 0,-0.0015 -0.242677,-0.4232 -0.438609,-0.852561 -0.582214,-1.349404 z m 16.483961,0 c 5.5e-5,0.0017 -0.0051,0.01676 -0.01516,0.04245 -0.07669,0.196422 -0.418497,1.017815 -0.570088,1.313016 -1.26e-4,2.23e-4 1.27e-4,0.0013 0,0.0015 -0.136304,0.237501 -0.349808,0.565067 -0.592828,0.921841 -0.71907,1.055658 -1.696611,2.368282 -1.696611,2.368282 -0.72031,1.01653 -1.359998,1.793666 -1.867937,2.679097 -0.109576,0.191009 -0.210259,0.386897 -0.303238,0.591312 -0.093,0.204426 -0.177683,0.416313 -0.253204,0.638314 -0.150998,0.443981 -0.266885,0.92839 -0.342658,1.467667 h 1.08104 c 0.0276,-0.179821 0.06182,-0.349741 0.100069,-0.512469 2.29e-4,-9.8e-4 -2.31e-4,-0.0021 0,-0.003 0.03841,-0.163077 0.0817,-0.31889 0.13039,-0.4685 1.5e-4,-4.61e-4 -1.49e-4,-0.0011 0,-0.0015 0.04872,-0.149567 0.103661,-0.293817 0.162233,-0.433627 1.79e-4,-4.29e-4 -1.79e-4,-0.0011 0,-0.0015 0.05878,-0.140216 0.122776,-0.275227 0.191041,-0.409372 0.0558,-0.10974 0.113962,-0.218055 0.175876,-0.325979 0.539072,-0.9397 2.289438,-3.291636 2.289438,-3.291636 0.720311,-1.016531 1.358473,-1.793658 1.866424,-2.6791 0.0074,-0.01284 0.01393,-0.02653 0.02123,-0.03942 0.137314,-0.242597 0.259028,-0.496423 0.369947,-0.761122 0.02071,-0.04921 0.04244,-0.09689 0.06217,-0.14707 0.104559,-0.266407 0.193034,-0.549922 0.269881,-0.847549 0.0052,-0.02101 0.02191,-0.06686 0.03032,-0.101584 z m 21.986199,0 c -0.137722,0.479623 -0.32497,0.897069 -0.554925,1.305435 -0.01133,0.02175 -0.02103,0.0399 -0.03032,0.0561 -0.472926,0.824394 -1.880167,2.735218 -2.218178,3.191569 -0.04717,0.06374 -0.07278,0.09855 -0.07278,0.09855 -0.410634,0.579503 -0.794544,1.080987 -1.143203,1.569251 -0.262713,0.368285 -0.504829,0.72916 -0.723221,1.109849 -0.10957,0.191004 -0.211761,0.388409 -0.304754,0.592826 -0.185904,0.408894 -0.337601,0.848248 -0.451821,1.335761 -0.05716,0.243724 -0.10463,0.499087 -0.142522,0.768704 h 1.08104 c 0.06685,-0.435622 0.165137,-0.815199 0.292622,-1.165944 0.06358,-0.174928 0.134682,-0.342902 0.212266,-0.506408 1.91e-4,-4.02e-4 -1.91e-4,-0.0011 0,-0.0015 0.07782,-0.163901 0.162033,-0.323226 0.253204,-0.482149 0.539072,-0.939701 2.289439,-3.29012 2.289439,-3.29012 4.34e-4,-6.16e-4 0.0011,-9.01e-4 0.0015,-0.0015 0.2715,-0.38315 0.530701,-0.732129 0.776285,-1.065877 0.406197,-0.551506 0.773719,-1.060135 1.090139,-1.611706 2.2e-4,-3.84e-4 -2.23e-4,-0.0011 0,-0.0015 0.07928,-0.1382 0.154835,-0.278539 0.225911,-0.423018 0.101323,-0.207154 0.192802,-0.421503 0.275946,-0.645893 0.09729,-0.262572 0.182166,-0.539435 0.253201,-0.832386 z m -15.375631,0.0076 -1.111363,0.0015 c 0.06668,0.273364 0.04169,0.142915 0.238041,0.776286 0.05878,0.159524 0.118454,0.31813 0.18649,0.4685 0.100452,0.222022 0.209987,0.435388 0.32901,0.642863 0.507942,0.885439 1.147633,1.662569 1.867941,2.6791 0,0 1.750358,2.351936 2.289439,3.291636 0.202011,0.352135 0.37125,0.708499 0.504891,1.105298 0.05466,0.1611 0.103007,0.328385 0.145552,0.504891 0.001,0.0042 0.002,0.0079 0.003,0.01213 0.01087,0.0455 0.01724,0.09732 0.02729,0.144039 0.02817,0.130947 0.0573,0.261572 0.07884,0.403304 h 0.0015 c -2.29e-4,-0.0029 -0.0011,-0.0065 -0.0015,-0.0091 h 1.079523 c -0.15138,-1.080336 -0.460406,-1.935607 -0.899097,-2.700324 -0.507951,-0.885428 -1.14763,-1.662562 -1.867941,-2.679098 0,0 -1.75037,-2.351938 -2.289439,-3.291639 -0.0281,-0.04898 -0.06572,-0.123668 -0.109165,-0.215297 -0.109664,-0.221804 -0.208707,-0.450444 -0.300204,-0.680769 -0.08276,-0.199617 -0.14988,-0.373885 -0.172844,-0.453338 z m 20.874833,0.0061 c 0.0079,0.03225 0.01317,0.05847 0.01819,0.07884 0.0061,0.0241 0.01338,0.04739 0.01971,0.07126 0.09919,0.374205 0.220786,0.721097 0.363886,1.047683 0.105533,0.240855 0.222435,0.470115 0.350237,0.692896 0.507949,0.885439 1.147642,1.66257 1.867941,2.6791 0,0 1.750358,2.350419 2.289439,3.29012 1.67e-4,2.93e-4 -1.67e-4,0.0012 0,0.0015 0.142809,0.248973 0.269614,0.498486 0.379046,0.764156 0.0039,0.0096 0.0082,0.01918 0.01213,0.02881 0.05483,0.13519 0.09829,0.282966 0.144039,0.427563 0.02239,0.07069 0.0496,0.135738 0.06974,0.209235 0.02576,0.09407 0.04166,0.202331 0.06368,0.30172 0.03171,0.142933 0.06877,0.279276 0.09249,0.435144 h 1.08104 c -0.102227,-0.733446 -0.278222,-1.363546 -0.51702,-1.93162 -0.112214,-0.26129 -0.239529,-0.518625 -0.383594,-0.776286 -0.507951,-0.88543 -1.14763,-1.662567 -1.867941,-2.679097 0,0 -1.75037,-2.351939 -2.289439,-3.291639 -0.24287,-0.423373 -0.440008,-0.852417 -0.58373,-1.349404 z m 16.483954,0 c 5e-5,0.0015 -0.004,0.01298 -0.0121,0.03336 -0.0909,0.272897 -0.44081,1.091083 -0.5716,1.319081 -3.6e-4,7.1e-4 -0.001,0.0023 -0.002,0.003 -0.0133,0.02326 -0.0277,0.04785 -0.0425,0.07278 -0.58244,0.98232 -2.24698,3.217345 -2.24698,3.217345 -0.35946,0.507276 -0.69996,0.954587 -1.01282,1.385791 -6.1e-4,8.42e-4 -9e-4,0.0022 -0.002,0.003 -0.31228,0.431019 -0.59868,0.84549 -0.8521,1.287241 -5.5e-4,9.62e-4 -9.6e-4,0.0021 -0.002,0.003 -0.0752,0.131023 -0.14637,0.264767 -0.21379,0.40179 -0.0813,0.165337 -0.15788,0.33623 -0.22742,0.51247 -1.8e-4,4.37e-4 1.7e-4,0.0011 0,0.0015 -0.0694,0.175834 -0.13235,0.356797 -0.18953,0.545826 -3.3e-4,0.0011 -0.001,0.0019 -0.002,0.003 -0.11422,0.37816 -0.2028,0.784607 -0.26534,1.229627 h 1.08104 c 0.0239,-0.155473 0.0516,-0.303252 0.0834,-0.445759 0.0636,-0.284498 0.14578,-0.542851 0.23956,-0.789932 0.0142,-0.03727 0.0261,-0.07706 0.0409,-0.113716 1.7e-4,-4.25e-4 -1.7e-4,-0.0011 0,-0.0015 0.10894,-0.269532 0.23769,-0.523328 0.38056,-0.774772 0.005,-0.0089 0.009,-0.0184 0.0136,-0.02729 5.6e-4,-9.86e-4 9.4e-4,-0.002 0.002,-0.003 0.53907,-0.9397 2.28944,-3.291639 2.28944,-3.291639 0.72031,-1.01653 1.35847,-1.793655 1.86642,-2.679097 0.15405,-0.268511 0.29215,-0.545885 0.41392,-0.841482 0.0287,-0.07003 0.0566,-0.141827 0.0834,-0.213783 0.25522,-0.836353 0.18582,-0.552674 0.25472,-0.836934 z m 21.9862,0 c -0.003,0.0095 -0.006,0.01938 -0.009,0.02881 -0.13449,0.459478 -0.31369,0.860359 -0.53369,1.253887 -0.0158,0.03099 -0.0301,0.05737 -0.0425,0.07884 -0.53907,0.939697 -2.29095,3.290122 -2.29095,3.290122 -0.72032,1.01653 -1.35848,1.793667 -1.86643,2.679097 -0.43816,0.763817 -0.74748,1.619235 -0.8991,2.697294 h 1.07953 c 0.1337,-0.87125 0.39493,-1.521838 0.75961,-2.157529 0.53907,-0.939701 2.28944,-3.290123 2.28944,-3.290123 0.36015,-0.508265 0.70096,-0.956843 1.01432,-1.388825 0.31337,-0.431981 0.59964,-0.847555 0.85362,-1.290275 0.095,-0.165518 0.18412,-0.334343 0.26685,-0.509435 0.002,-0.0044 0.004,-0.0092 0.006,-0.01365 0.006,-0.01211 0.01,-0.02574 0.0152,-0.0379 0.078,-0.168537 0.15204,-0.34164 0.21833,-0.521568 0.0953,-0.258696 0.17875,-0.530595 0.24866,-0.81874 z m -16.48548,0.0045 c 0.0348,0.142575 0.10349,0.343354 0.12433,0.404822 0.0515,0.167452 0.098,0.340478 0.1592,0.497309 0.0315,0.08168 0.0661,0.160317 0.10006,0.239558 0.10885,0.251071 0.22408,0.495596 0.35631,0.727769 0.004,0.0071 0.008,0.01419 0.0121,0.02123 2.2e-4,3.9e-4 -2.2e-4,0.0011 0,0.0015 0.25397,0.442722 0.54024,0.858293 0.85361,1.290275 0.31345,0.432028 0.65418,0.879043 1.01433,1.387308 2.5e-4,3.61e-4 -2.6e-4,0.0012 0,0.0015 0.001,0.0015 1.75052,2.349195 2.28944,3.288605 1.7e-4,2.91e-4 -1.7e-4,0.0012 0,0.0015 0.0911,0.15882 0.17542,0.319735 0.2532,0.483664 9.6e-4,0.002 0.002,0.004 0.003,0.0061 0.0118,0.02495 0.0203,0.05217 0.0318,0.07733 0.21471,0.470173 0.37689,0.975645 0.47154,1.595026 h 1.08103 c -0.0376,-0.268645 -0.0843,-0.524258 -0.141,-0.76719 -3.8e-4,-0.0016 -0.001,-0.0029 -0.002,-0.0045 -0.0569,-0.243143 -0.12349,-0.474427 -0.19863,-0.695929 -3.7e-4,-0.0011 -10e-4,-0.0019 -0.002,-0.003 -0.0754,-0.221796 -0.1589,-0.434067 -0.25169,-0.638315 -2.8e-4,-6.27e-4 -0.001,-8.89e-4 -0.002,-0.0015 -0.0931,-0.204788 -0.19347,-0.401497 -0.30323,-0.592829 -0.50795,-0.885431 -1.14763,-1.662567 -1.86794,-2.679097 0,0 -1.75036,-2.350422 -2.28944,-3.290123 -2.2e-4,-4.05e-4 2.2e-4,-0.0011 0,-0.0015 -0.0986,-0.1719 -0.32044,-0.673948 -0.46244,-1.026459 -0.0398,-0.103397 -0.0789,-0.208401 -0.11675,-0.312332 -10e-4,-0.0035 -0.003,-0.0071 -0.005,-0.01062 z M 63.287605,79.84281 c -0.01611,0.05611 -0.05379,0.159102 -0.103101,0.283527 -0.04164,0.124079 -0.08145,0.244164 -0.094,0.280493 -0.378815,0.778859 -0.246676,0.552671 -0.377529,0.780836 -0.0032,0.0056 -0.0071,0.01052 -0.01062,0.01668 -0.136284,0.237569 -0.349527,0.566171 -0.592828,0.923358 -0.71907,1.055658 -1.696611,2.368282 -1.696611,2.368282 -0.72031,1.01653 -1.359998,1.792152 -1.867937,2.677583 -0.109576,0.191006 -0.210259,0.388411 -0.303238,0.592826 -0.093,0.204426 -0.177683,0.416313 -0.253204,0.638314 -0.150998,0.443981 -0.266885,0.926873 -0.342658,1.466151 h 1.08104 c 0.02752,-0.179309 0.06196,-0.348647 0.100069,-0.510953 0.03865,-0.1646 0.08128,-0.320648 0.13039,-0.471534 1.5e-4,-4.61e-4 -1.49e-4,-0.0011 0,-0.0015 0.04872,-0.149567 0.103661,-0.293817 0.162233,-0.433627 1.79e-4,-4.26e-4 -1.76e-4,-0.0011 0,-0.0015 0.05878,-0.140216 0.122776,-0.276744 0.191041,-0.410886 0.0558,-0.109743 0.113962,-0.218058 0.175876,-0.325982 0.539072,-0.9397 2.289438,-3.290119 2.289438,-3.290119 2.59e-4,-3.64e-4 -2.55e-4,-0.0012 0,-0.0015 0.720311,-1.01653 1.358473,-1.793655 1.866424,-2.6791 0.07607,-0.132593 0.146774,-0.269511 0.2153,-0.407852 0.01694,-0.03438 0.03662,-0.06678 0.05307,-0.101584 9.54e-4,-0.002 0.0021,-0.0041 0.003,-0.0061 0.04651,-0.09809 0.0849,-0.202932 0.127359,-0.304754 0.03422,-0.08237 0.07153,-0.162091 0.103101,-0.247139 0.241192,-0.7886 0.182855,-0.543899 0.251687,-0.827836 h -1.108332 c 5.34e-4,-0.0019 0.001,-0.0042 0.0015,-0.0061 z m -16.483961,0.0061 c 0.01207,0.04949 0.02355,0.09853 0.03639,0.147069 0.01979,0.06979 0.03693,0.09442 0.209232,0.654992 0.0012,0.0039 3.02e-4,5.86e-4 0.0015,0.0045 l 0.498826,1.071942 c 0.0022,0.0039 0.0038,0.0082 0.0061,0.01213 v 0.0015 l 0.0015,0.0015 c 0.507725,0.884427 1.146785,1.660469 1.866421,2.676066 0,0 1.750361,2.350419 2.289441,3.29012 1.68e-4,2.93e-4 -1.7e-4,0.0012 0,0.0015 0.183058,0.319104 0.340878,0.640738 0.468501,0.993102 0.127843,0.35259 0.225994,0.735477 0.292622,1.173525 h 1.08104 c -0.03782,-0.271433 -0.08522,-0.528105 -0.142522,-0.773252 -0.171471,-0.734315 -0.428225,-1.359643 -0.758092,-1.934654 -0.507948,-0.88543 -1.147627,-1.662567 -1.867938,-2.679097 0,0 -1.750372,-2.350422 -2.289441,-3.290122 -1.38e-4,-2.44e-4 1.4e-4,-0.0013 0,-0.0015 -0.138485,-0.24138 -0.520574,-1.13615 -0.582214,-1.349404 z m 38.47016,0 c -0.0073,0.02527 -0.01974,0.06224 -0.03639,0.107648 -0.116453,0.320211 -0.427357,1.042088 -0.548856,1.253885 -0.387089,0.674766 -1.399089,2.077041 -1.939202,2.81404 -0.212061,0.289621 -0.351754,0.476082 -0.351754,0.476082 -0.231977,0.327373 -0.455145,0.629507 -0.668638,0.918808 -0.448969,0.608916 -0.853493,1.16014 -1.197786,1.760292 -0.109576,0.191012 -0.211758,0.386886 -0.304754,0.591312 -0.09299,0.204424 -0.176166,0.416314 -0.251685,0.638312 -0.054,0.158726 -0.09785,0.329291 -0.142521,0.498826 -0.01781,0.06758 -0.04133,0.129152 -0.05761,0.19862 -1.18e-4,4.9e-4 1.14e-4,0.001 0,0.0015 -0.0089,0.03794 -0.01431,0.08125 -0.02275,0.119777 -0.04564,0.20854 -0.08786,0.421777 -0.119777,0.648927 h 1.08104 c 0.06686,-0.435508 0.165152,-0.816786 0.292622,-1.167461 0.127473,-0.350674 0.283163,-0.670764 0.46547,-0.988554 0.539072,-0.939701 2.289439,-3.291637 2.289439,-3.291637 0.161267,-0.227587 0.318952,-0.442969 0.471534,-0.650443 0.528938,-0.719223 1.002177,-1.341453 1.396407,-2.028654 0.0894,-0.155845 0.173088,-0.314867 0.251687,-0.479116 0.09061,-0.189357 0.174608,-0.384529 0.25017,-0.588281 0.07701,-0.252215 0.124598,-0.401359 0.154651,-0.494275 0.07192,-0.226279 0.0502,-0.140225 0.09855,-0.339625 z m 21.984676,0.0045 c -0.0594,0.206656 -0.41088,1.034486 -0.56402,1.322114 -0.008,0.01464 -0.0145,0.02773 -0.0212,0.03942 -5.1e-4,8.87e-4 -0.001,0.0022 -0.002,0.003 -0.53906,0.939701 -2.28943,3.290123 -2.28943,3.290123 -0.35946,0.507276 -0.69996,0.954587 -1.01282,1.385791 -6.1e-4,8.42e-4 -9e-4,0.0022 -0.002,0.003 -0.31228,0.431019 -0.59868,0.84549 -0.8521,1.287241 -5.5e-4,9.62e-4 -9.6e-4,0.0021 -0.002,0.003 -0.10622,0.18515 -0.20503,0.375431 -0.29566,0.573118 -0.14157,0.309105 -0.2629,0.635383 -0.36389,0.987038 -3.2e-4,0.0011 -10e-4,0.0019 -0.002,0.003 -0.10033,0.349903 -0.17943,0.724762 -0.23653,1.131077 h 1.08104 c 0.008,-0.0514 0.0155,-0.101722 0.0243,-0.15162 0.0351,-0.199142 0.0772,-0.386892 0.12585,-0.565537 0.0485,-0.177976 0.10382,-0.346461 0.16526,-0.509439 1.7e-4,-4.4e-4 -1.7e-4,-0.0011 0,-0.0015 0.12287,-0.325685 0.27186,-0.626748 0.44273,-0.924875 4.5e-4,-7.86e-4 0.001,-0.0022 0.002,-0.003 0.53862,-0.938914 2.285,-3.284677 2.28793,-3.288605 6.9e-4,-9.89e-4 8.1e-4,-0.002 0.002,-0.003 0.35946,-0.507276 0.69873,-0.954541 1.0113,-1.385791 6.8e-4,-9.39e-4 8.3e-4,-0.0021 0.002,-0.003 0.31307,-0.432028 0.59964,-0.847552 0.85361,-1.290272 0.15857,-0.276388 0.30025,-0.563468 0.42454,-0.868774 0.0249,-0.06135 0.0494,-0.123665 0.0728,-0.186491 0.25547,-0.837181 0.18578,-0.552539 0.25472,-0.836934 h -1.10833 c 8.1e-4,-0.0027 7.9e-4,-0.0063 0.002,-0.0091 z m -38.47167,0.003 c 0.07188,0.294682 -5.87e-4,-7.42e-4 0.256234,0.836935 0.05542,0.146512 0.112554,0.290307 0.175876,0.429079 0.09812,0.215024 0.205849,0.421677 0.321431,0.623152 0.507939,0.885439 1.14763,1.66257 1.867941,2.6791 0,0 1.750361,2.350419 2.289439,3.290119 0.01795,0.0313 0.03657,0.06489 0.05458,0.10007 0.334792,0.603201 0.574834,1.230119 0.701994,2.052915 0.0018,0.0068 0.0031,0.0096 0.003,0.0091 h 1.079523 c -0.15138,-1.079945 -0.460412,-1.935616 -0.899097,-2.700324 -0.507951,-0.885428 -1.14763,-1.662561 -1.867941,-2.679097 0,0 -1.75037,-2.351939 -2.289439,-3.29164 -0.0096,-0.01673 -0.02009,-0.03656 -0.03184,-0.05913 -0.194632,-0.338518 -0.337175,-0.69754 -0.4685,-1.062843 -0.03879,-0.09919 -0.06826,-0.180335 -0.08187,-0.227429 z m 21.986196,0.0061 c 0.07007,0.28725 0.01572,0.05379 0.25017,0.815707 0.03843,0.103822 0.08192,0.201826 0.124328,0.30172 0.0364,0.08589 0.06992,0.17447 0.109165,0.257752 6.69e-4,0.0014 8.45e-4,0.0031 0.0015,0.0046 0.08289,0.175286 0.171798,0.345264 0.266847,0.510953 0.507949,0.885439 1.147642,1.66257 1.867941,2.6791 0,0 1.750358,2.350419 2.289439,3.29012 0.09152,0.15953 0.176618,0.318981 0.254718,0.483663 1.91e-4,4.02e-4 -1.91e-4,0.0011 0,0.0015 0.155933,0.328989 0.28421,0.674435 0.38208,1.062846 0.049,0.194451 0.09102,0.399534 0.124328,0.618601 h 1.08104 c -0.03771,-0.270406 -0.08549,-0.527424 -0.142522,-0.771738 -0.1142,-0.489041 -0.26707,-0.930423 -0.453341,-1.340305 -1.87e-4,-4.14e-4 1.88e-4,-0.0011 0,-0.0015 -0.09327,-0.205119 -0.194797,-0.40116 -0.304751,-0.592829 -0.507951,-0.88543 -1.14763,-1.662567 -1.867941,-2.679097 0,0 -1.75037,-2.351939 -2.289439,-3.291639 -0.147633,-0.257368 -0.527395,-1.154692 -0.58373,-1.349404 z m 38.470154,0 c -0.0624,0.217174 -0.44681,1.1202 -0.58525,1.361533 -0.5389,0.939407 -2.28987,3.287147 -2.29095,3.288605 v 0.0015 c -0.72032,1.016531 -1.35848,1.793667 -1.86643,2.679097 -0.43816,0.763817 -0.74748,1.617718 -0.8991,2.695777 h 1.07953 c 0.1337,-0.87125 0.39493,-1.520321 0.75961,-2.156012 0.53907,-0.939701 2.28944,-3.290123 2.28944,-3.290123 0.36015,-0.508265 0.70096,-0.956846 1.01432,-1.388825 0.31337,-0.431981 0.59964,-0.847555 0.85362,-1.290275 0.19878,-0.346516 0.68684,-1.621218 0.75506,-1.901294 z m -16.48548,0.0045 c 0.0719,0.294681 -5.9e-4,-7.43e-4 0.25624,0.836934 0.07,0.187388 0.14625,0.367609 0.22894,0.542795 0.0834,0.174661 0.17177,0.345214 0.26685,0.510953 0.50795,0.885439 1.14764,1.66257 1.86794,2.6791 0,0 1.75036,2.350422 2.28944,3.290122 1.7e-4,2.91e-4 -1.7e-4,0.0012 0,0.0015 0.36497,0.636458 0.6262,1.2875 0.75961,2.160563 h 1.08103 c -0.0378,-0.270376 -0.0853,-0.525936 -0.14251,-0.770221 -0.0569,-0.243143 -0.12349,-0.474427 -0.19863,-0.695929 -3.7e-4,-0.0011 -0.001,-0.0019 -0.002,-0.003 -0.0754,-0.221795 -0.1589,-0.434067 -0.25169,-0.638314 -2.8e-4,-6.28e-4 -10e-4,-8.89e-4 -0.002,-0.0015 -0.0931,-0.204787 -0.19499,-0.401497 -0.30475,-0.592829 -0.14068,-0.245232 -0.29054,-0.482684 -0.45031,-0.718671 -0.41708,-0.616051 -0.8953,-1.225439 -1.41611,-1.960426 0,0 -0.14294,-0.19108 -0.35934,-0.486695 -0.54169,-0.740021 -1.54641,-2.131959 -1.93162,-2.803428 -0.0477,-0.08318 -0.10311,-0.199946 -0.16071,-0.329012 -0.21792,-0.48825 -0.4617,-1.16269 -0.4215,-1.021908 z M 46.803644,94.665034 v 0.0015 c 0.07174,0.293966 0.55765,1.548367 0.748994,1.884618 8.98e-4,0.0016 0.0021,0.003 0.003,0.0045 1.32e-4,2.32e-4 -1.32e-4,0.0013 0,0.0015 0.101079,0.176198 0.228538,0.343639 0.339625,0.513987 0.329261,0.504908 0.697399,1.029313 1.10075,1.578349 0.144241,0.196325 0.275673,0.370889 0.427563,0.585247 2.58e-4,3.61e-4 -2.56e-4,0.0012 0,0.0015 0.0011,0.0015 1.750528,2.349185 2.289441,3.288595 1.68e-4,2.9e-4 -1.7e-4,0.001 0,0.002 0.159877,0.2788 0.300433,0.56071 0.418465,0.86271 0.151969,0.38886 0.267639,0.81035 0.342658,1.30391 h 1.08104 c -0.03774,-0.27095 -0.08537,-0.52697 -0.142522,-0.77173 -0.114293,-0.48952 -0.266838,-0.9316 -0.453337,-1.34183 -0.09327,-0.20512 -0.1948,-0.40267 -0.304755,-0.59434 -0.507951,-0.88543 -1.147627,-1.66256 -1.867938,-2.679088 0,0 -1.750372,-2.350425 -2.289441,-3.290122 -1.29e-4,-2.29e-4 1.32e-4,-0.0013 0,-0.0015 -0.138485,-0.24138 -0.520574,-1.136149 -0.582214,-1.349404 z m 16.483961,0 c 0.03695,-0.134706 -0.336157,0.885345 -0.559472,1.29937 -0.0063,0.01179 -0.01868,0.04486 -0.02426,0.05458 -2.29e-4,3.99e-4 -0.0013,0.0011 -0.0015,0.0015 -0.145004,0.252773 -0.377141,0.607804 -0.639828,0.991586 -0.71388,1.042968 -1.649611,2.300054 -1.649611,2.300054 -0.612489,0.864356 -1.16702,1.556006 -1.631413,2.287916 -0.08126,0.12819 -0.159369,0.25629 -0.23501,0.38814 -5.61e-4,9.8e-4 -9.54e-4,0.002 -0.0015,0.003 -0.0026,0.004 -0.005,0.009 -0.0076,0.0136 -0.312614,0.54818 -0.556784,1.14651 -0.726252,1.83762 -0.0064,0.0261 -0.01504,0.0494 -0.02123,0.0758 -3.78e-4,0.002 -0.0011,0.003 -0.0015,0.005 -0.05655,0.24198 -0.103415,0.49516 -0.141005,0.76264 h 1.08104 c 0.03343,-0.21781 0.07534,-0.42075 0.124328,-0.61405 0.04904,-0.19362 0.104418,-0.37628 0.168297,-0.55189 0.02673,-0.0735 0.06021,-0.14115 0.08945,-0.21227 0.04054,-0.0987 0.07908,-0.1989 0.124325,-0.29414 0.07738,-0.16284 0.161165,-0.32268 0.251688,-0.48063 4.19e-4,-7.3e-4 0.0011,-0.002 0.0015,-0.003 0.133327,-0.23242 0.340954,-0.55086 0.577666,-0.8991 0.720358,-1.05921 1.710256,-2.389497 1.710256,-2.389497 7.02e-4,-9.89e-4 8.19e-4,-0.002 0.0015,-0.003 0.720311,-1.01653 1.358473,-1.793655 1.866424,-2.679097 0.137015,-0.23883 0.262784,-0.484799 0.374499,-0.744449 0.04304,-0.100542 0.08379,-0.20322 0.122811,-0.307785 3.81e-4,-0.0013 0.0011,-0.0018 0.0015,-0.003 v -0.0015 -0.0015 c 0.09807,-0.263514 0.183172,-0.541252 0.254721,-0.835417 z m 21.986199,0.0015 c -0.06238,0.217174 -0.446804,1.1202 -0.585247,1.361533 -0.538902,0.939407 -2.289871,3.287147 -2.290956,3.288605 v 0.0015 c -0.35987,0.507817 -0.69967,0.955628 -1.012813,1.387308 -2.23e-4,3.1e-4 2.23e-4,0.001 0,0.002 -0.313072,0.43204 -0.599636,0.84756 -0.853611,1.29028 -0.328661,0.57292 -0.585118,1.19605 -0.756575,1.92707 -0.05716,0.24367 -0.104621,0.49915 -0.142522,0.7687 h 1.08104 c 0.06685,-0.43562 0.165137,-0.81519 0.292622,-1.16594 0.127485,-0.35075 0.283131,-0.67223 0.46547,-0.99007 0.539072,-0.9397 2.289439,-3.290119 2.289439,-3.290119 0.563738,-0.795573 1.078842,-1.444629 1.519217,-2.113563 0.122307,-0.185784 0.238311,-0.373072 0.348724,-0.565537 0.03423,-0.05968 0.06739,-0.121136 0.100066,-0.18194 0.148616,-0.276505 0.281016,-0.564618 0.395726,-0.871808 0.258767,-0.848142 0.187063,-0.549766 0.259266,-0.847546 z m -16.48548,0.0045 c 0.07188,0.294681 -5.84e-4,-7.43e-4 0.256237,0.836934 0.118091,0.316038 0.254061,0.613675 0.407852,0.897583 0.02858,0.05276 0.05816,0.104251 0.08794,0.156165 0.25397,0.442719 0.540249,0.858294 0.853614,1.290275 4.26e-4,5.84e-4 0.0011,9.3e-4 0.0015,0.0015 0.313043,0.431491 0.653099,0.879671 1.01281,1.387311 0,0 0.286062,0.383767 0.662573,0.903638 0.554769,0.76596 1.305672,1.82658 1.626866,2.38647 1.41e-4,2.5e-4 -1.38e-4,10e-4 0,0.002 0.364878,0.63628 0.62617,1.28785 0.759609,2.16056 h 1.08104 c -0.151277,-1.08113 -0.460048,-1.93652 -0.899097,-2.70184 -0.507949,-0.88543 -1.147633,-1.66257 -1.867941,-2.679087 0,0 -1.750358,-2.351939 -2.289439,-3.29164 -0.137364,-0.239458 -0.506059,-1.134368 -0.582214,-1.349403 z m 38.470156,0 c -0.55796,1.29937 -0.3328,0.878793 -0.55796,1.29937 -0.007,0.0137 -0.0209,0.05111 -0.0273,0.06216 -2.3e-4,3.99e-4 -0.001,0.0011 -0.002,0.0015 -0.15903,0.277234 -0.42327,0.677481 -0.71715,1.103785 -0.70242,1.018123 -1.57228,2.184821 -1.57228,2.184821 v 0.0015 c -0.59071,0.83361 -1.1274,1.50726 -1.58139,2.21059 -0.0991,0.15371 -0.19402,0.30833 -0.28504,0.46699 -3.5e-4,6e-4 -0.001,9.1e-4 -0.002,0.002 -0.21952,0.38266 -0.40683,0.7878 -0.55796,1.23266 -0.0755,0.22242 -0.1415,0.45472 -0.19862,0.69896 -0.0567,0.2424 -0.10334,0.49616 -0.14101,0.76416 h 1.08104 c 0.0333,-0.2173 0.074,-0.42116 0.12281,-0.61406 1.3e-4,-4.8e-4 -1.2e-4,-0.001 0,-0.002 0.049,-0.19331 0.10601,-0.37506 0.16982,-0.55038 0.0638,-0.17564 0.1343,-0.34377 0.21226,-0.50792 0.0409,-0.086 0.0888,-0.16898 0.13343,-0.2532 0.0401,-0.0757 0.0768,-0.15248 0.11978,-0.22743 2.5e-4,-4.4e-4 0.001,-0.001 0.002,-0.002 0.15525,-0.27062 0.4105,-0.65848 0.69593,-1.07346 0.70558,-1.02527 1.592,-2.215134 1.592,-2.215134 6.9e-4,-9.89e-4 8.1e-4,-0.002 0.002,-0.003 0.35946,-0.507276 0.69873,-0.954541 1.0113,-1.385791 6.8e-4,-9.42e-4 8.3e-4,-0.0021 0.002,-0.003 0.31307,-0.432028 0.59964,-0.847552 0.85361,-1.290272 0.12206,-0.212753 0.23446,-0.432207 0.3366,-0.661059 0.0571,-0.128793 0.11029,-0.260398 0.16071,-0.395723 h 0.002 v -0.0015 h -0.002 c 0.001,-0.0027 0.002,-0.0048 0.003,-0.0076 0.097,-0.261484 0.18227,-0.536197 0.2532,-0.827836 z m 21.98468,0.0076 c -0.0624,0.217174 -0.44681,1.1202 -0.58525,1.361533 -0.53907,0.939698 -2.29095,3.290123 -2.29095,3.290123 -0.72032,1.01652 -1.35848,1.79366 -1.86643,2.67909 -0.43821,0.76389 -0.74749,1.61906 -0.8991,2.69729 h 1.07953 c 0.1337,-0.87125 0.39493,-1.52184 0.75961,-2.15753 0.53907,-0.9397 2.28944,-3.290111 2.28944,-3.290111 0.36015,-0.508265 0.70096,-0.956844 1.01432,-1.388825 0.31337,-0.431982 0.59964,-0.847556 0.85362,-1.290275 0.18982,-0.330926 0.68228,-1.601951 0.75506,-1.901295 z m -38.470154,0.0015 c 0.04975,0.203933 0.108933,0.369337 0.177392,0.579183 0.03046,0.09337 -2.43e-4,-2.09e-4 0.07884,0.257751 0.139966,0.374267 0.305992,0.721382 0.495792,1.052231 2.23e-4,3.9e-4 -2.23e-4,0.0011 0,0.0015 0.168007,0.29286 0.370558,0.571865 0.565537,0.853611 0.09942,0.143658 0.182371,0.28943 0.288075,0.435144 4.25e-4,5.87e-4 0.0011,9.3e-4 0.0015,0.0015 0.313046,0.431488 0.653105,0.879671 1.012813,1.387311 2.55e-4,3.61e-4 -2.58e-4,0.0012 0,0.0015 0.0011,0.0015 1.750525,2.350705 2.289439,3.290115 0.231944,0.40432 0.42227,0.81371 0.56402,1.2827 0.08216,0.27135 0.148252,0.56298 0.197106,0.88393 h 1.08104 c -0.03778,-0.27098 -0.08533,-0.52848 -0.142522,-0.77326 -0.01619,-0.0693 -0.03839,-0.13115 -0.0561,-0.19862 -0.04479,-0.17065 -0.08981,-0.34216 -0.144036,-0.50185 -0.04557,-0.1342 -0.101111,-0.25764 -0.153134,-0.38511 -0.03433,-0.0841 -0.063,-0.17323 -0.10007,-0.25472 -0.09308,-0.20471 -0.195052,-0.40152 -0.304751,-0.59283 -2.08e-4,-3.6e-4 2.05e-4,-0.001 0,-0.002 -0.253632,-0.44211 -0.540747,-0.8574 -0.853614,-1.28875 -3.85e-4,-5.4e-4 -0.0011,-9.9e-4 -0.0015,-0.002 -0.08448,-0.11645 -0.184698,-0.25481 -0.272912,-0.3745 -0.238748,-0.32387 -0.477229,-0.642111 -0.739898,-1.012804 v -0.0015 c 0,0 -1.75037,-2.350425 -2.289439,-3.290122 -0.138244,-0.240958 -0.521081,-1.134146 -0.58373,-1.349404 z m 21.984674,0.0045 c 0.0719,0.294681 -5.9e-4,-7.43e-4 0.25624,0.836934 0.11445,0.3063 0.24619,0.594354 0.3942,0.870291 0.0331,0.06168 0.0669,0.122937 0.10159,0.183457 0.50795,0.885439 1.14764,1.66257 1.86794,2.6791 0,0 1.75036,2.350414 2.28944,3.290114 9.1e-4,0.002 0.002,0.003 0.003,0.005 0.36377,0.6351 0.62338,1.28654 0.75658,2.15753 h 1.08103 c -0.049,-0.35011 -0.11435,-0.67661 -0.19558,-0.984 -0.16932,-0.64143 -0.40706,-1.20077 -0.70351,-1.71784 -3.5e-4,-6e-4 -0.001,-9.2e-4 -0.002,-0.002 -0.0857,-0.14933 -0.19517,-0.29031 -0.28807,-0.43514 -0.18247,-0.28434 -0.35794,-0.56902 -0.56554,-0.85513 -0.31314,-0.43168 -0.65294,-0.879487 -1.01281,-1.387303 0,0 4e-5,-0.0015 0,-0.0015 0,0 -0.003,-0.003 -0.009,-0.01062 -0.14233,-0.176416 -1.87038,-2.326035 -2.28186,-3.279508 v -0.0015 c -0.58142,-1.347262 -0.59192,-1.386786 -0.5807,-1.347887 z" />
    </g>
  </g>
</svg>
