<?xml version="1.0" encoding="UTF-8" standalone="no"?>
<!-- Created with Inkscape (http://www.inkscape.org/) -->

<svg
   width="29.972008mm"
   height="17.380457mm"
   viewBox="0 0 29.972008 17.380457"
   version="1.1"
   id="svg1"
   xmlns="http://www.w3.org/2000/svg"
   xmlns:svg="http://www.w3.org/2000/svg">
  <defs
     id="defs1" />
  <g
     id="layer1"
     transform="translate(-44.579159,-58.014746)">
    <g
       id="g18"
       transform="matrix(0.34083199,0,0,0.34083199,29.375984,37.72177)"
       style="fill:#000000;stroke-width:2.93407">
      <path
         id="path17"
         style="baseline-shift:baseline;display:inline;overflow:visible;opacity:1;fill:#d40000;fill-rule:evenodd;stroke:none;stroke-width:14.67;stroke-dasharray:none;stroke-opacity:1;enable-background:accumulate;stop-color:#000000"
         d="m 48.151066,59.539518 c -0.0866,0.0774 -0.162019,0.164287 -0.242879,0.246497 0.081,-0.0823 0.156676,-0.168987 0.243396,-0.246497 z m 43.968892,0.01292 c -0.0866,0.0774 -0.162019,0.164287 -0.242879,0.246497 0.081,-0.0823 0.156676,-0.168987 0.243396,-0.246497 z m -22.432222,4.350639 c 0.0349,0.29641 0.0842,0.567842 0.145211,0.820622 -0.0612,-0.25331 -0.110251,-0.523492 -0.145211,-0.820622 z m 43.968894,0.01292 c 0.0349,0.29641 0.0842,0.567842 0.14521,0.820622 -0.0612,-0.25331 -0.11025,-0.523492 -0.14521,-0.820622 z m -49.074009,0.01447 c -0.016,0.14274 -0.04733,0.264042 -0.06873,0.398942 0.0214,-0.13482 0.05283,-0.256292 0.06873,-0.398942 z m 21.984188,0.0047 c -0.0156,0.13948 -0.04638,0.258167 -0.06718,0.390157 0.0209,-0.13202 0.05158,-0.250647 0.06718,-0.390157 z m 21.984701,0.0078 c -0.016,0.14274 -0.0473,0.264042 -0.0687,0.398942 0.0214,-0.13482 0.0528,-0.256292 0.0687,-0.398942 z m 21.98419,0.0052 c -0.0156,0.13948 -0.0464,0.258167 -0.0672,0.390157 0.0209,-0.13202 0.0516,-0.250647 0.0672,-0.390157 z m -60.671231,0.904854 c 0.0108,0.0408 0.01899,0.0852 0.03049,0.125057 h -1.11621 c 0.17417,0.71862 0.433933,1.328765 0.759643,1.896525 0.50794,0.88544 1.147276,1.662376 1.867586,2.678906 0,0 1.750703,2.351055 2.289783,3.290755 0.36978,0.644578 0.630261,1.306485 0.762227,2.196249 -0.0013,-0.01086 -7.73e-4,-0.0243 -0.0026,-0.03462 h 1.081587 c -0.15127,-1.08113 -0.460636,-1.937358 -0.899686,-2.702678 -0.50795,-0.88543 -1.147277,-1.662376 -1.867587,-2.678906 0,0 -1.750702,-2.351055 -2.289782,-3.290755 -0.26335,-0.45906 -0.469337,-0.92883 -0.615467,-1.48053 z m 43.968891,0.01292 c 0.0108,0.0408 0.019,0.0852 0.0305,0.125057 h -1.11621 c 0.17417,0.71862 0.43393,1.328765 0.75964,1.896525 0.50794,0.88544 1.14728,1.662376 1.86759,2.678906 0,0 1.7507,2.351056 2.28978,3.290756 0.36978,0.644577 0.63026,1.305967 0.76223,2.195731 -0.001,-0.01086 -7.7e-4,-0.02378 -0.003,-0.03411 h 1.08158 c -0.15127,-1.08113 -0.46063,-1.937358 -0.89968,-2.702678 -0.50795,-0.88543 -1.14728,-1.662376 -1.86759,-2.678906 0,0 -1.7507,-2.351055 -2.28978,-3.290755 -0.26335,-0.45906 -0.46934,-0.92883 -0.61547,-1.48053 z m -50.52663,0.01344 c -0.14579,0.53917 -0.347404,1.003135 -0.606164,1.454175 -0.53907,0.9397 -2.289783,3.290755 -2.289783,3.290755 -0.72031,1.01653 -1.359646,1.793476 -1.867586,2.678906 -0.43904,0.76532 -0.748417,1.621548 -0.899687,2.702678 h 1.081588 c 0.13346,-0.8738 0.394253,-1.524696 0.759643,-2.161626 0.53907,-0.9397 2.289783,-3.290755 2.289783,-3.290755 0.72031,-1.01653 1.359646,-1.793466 1.867586,-2.678906 0.32483,-0.56624 0.579809,-1.180415 0.753959,-1.896525 H 63.28606 c 0.009,-0.0303 0.01237,-0.0679 0.02067,-0.0987 z m 43.96889,0.01292 c -0.14579,0.53917 -0.3474,1.003135 -0.60616,1.454175 -0.53907,0.9397 -2.28978,3.290755 -2.28978,3.290755 -0.72031,1.01653 -1.35965,1.793476 -1.86759,2.678906 -0.43904,0.76532 -0.74842,1.621548 -0.89969,2.702678 h 1.08159 c 0.13346,-0.8738 0.39425,-1.524695 0.75964,-2.161625 0.53907,-0.9397 2.28979,-3.290756 2.28979,-3.290756 0.72031,-1.01653 1.35964,-1.793466 1.86758,-2.678906 0.32483,-0.56624 0.57981,-1.180415 0.75396,-1.896525 h -1.11001 c 0.009,-0.0303 0.0124,-0.0679 0.0207,-0.0987 z m -60.474342,0.08578 c 0.17414,0.71401 0.428825,1.326397 0.752925,1.891357 0.50795,0.88544 1.147288,1.662377 1.867587,2.678907 0,0 1.750702,2.351055 2.289782,3.290755 0.36612,0.63821 0.626941,1.290333 0.760161,2.166793 h 1.081587 c -0.15094,-1.0839 -0.4609,-1.941165 -0.90072,-2.707845 -0.50795,-0.88543 -1.147276,-1.662377 -1.867586,-2.678907 0,0 -1.750713,-2.351055 -2.289783,-3.290755 -0.243,-0.42359 -0.43917,-0.852995 -0.58291,-1.350305 z m 38.47052,0 c -0.14406,0.5017 -0.341848,0.93412 -0.586528,1.36064 -0.53907,0.9397 -2.289783,3.290756 -2.289783,3.290756 -0.72031,1.01653 -1.359636,1.793476 -1.867586,2.678906 -0.4383,0.76405 -0.747083,1.61898 -0.898653,2.69751 h 1.081071 c 0.13369,-0.87125 0.394447,-1.520768 0.759127,-2.156458 0.53907,-0.9397 2.289783,-3.290755 2.289783,-3.290755 0.72031,-1.01653 1.359636,-1.793466 1.867586,-2.678906 0.32557,-0.56753 0.580832,-1.183463 0.754992,-1.901693 z m 5.498372,0.01292 c 0.17414,0.71401 0.428826,1.326397 0.752926,1.891357 0.50795,0.88544 1.147287,1.662377 1.867586,2.678907 0,0 1.750703,2.351055 2.289783,3.290755 0.147976,0.257948 0.278573,0.517881 0.390674,0.794267 0.165253,0.407438 0.290111,0.850315 0.369486,1.372526 h 1.081588 c -0.08297,-0.595814 -0.213863,-1.123105 -0.38809,-1.604553 0.170057,-0.03005 0.339879,-0.05701 0.509013,-0.08062 -0.169138,0.02359 -0.338952,0.05006 -0.509013,0.0801 -0.142724,-0.394387 -0.314582,-0.757544 -0.51263,-1.102775 -0.50795,-0.88543 -1.147277,-1.662377 -1.867587,-2.678907 0,0 -1.750712,-2.351055 -2.289782,-3.290755 -0.243,-0.42359 -0.439171,-0.852995 -0.582911,-1.350305 z m 38.47052,0 c -0.14406,0.5017 -0.34185,0.934121 -0.58653,1.360641 -0.53907,0.9397 -2.28978,3.290755 -2.28978,3.290755 -0.72031,1.01653 -1.35964,1.793476 -1.86759,2.678906 -0.4383,0.76405 -0.74708,1.61898 -0.89865,2.69751 h 1.08107 c 0.13369,-0.87125 0.39445,-1.520768 0.75913,-2.156458 0.53907,-0.9397 2.28978,-3.290755 2.28978,-3.290755 0.72031,-1.01653 1.35964,-1.793466 1.86759,-2.678906 0.32557,-0.56753 0.58083,-1.183463 0.75499,-1.901693 z m -81.089624,9.422681 c -0.0866,0.0774 -0.162019,0.164286 -0.242879,0.246496 0.081,-0.0823 0.156676,-0.168986 0.243396,-0.246496 z m 43.968892,0.0124 c -0.0866,0.0774 -0.162019,0.164287 -0.242879,0.246497 0.081,-0.0823 0.156676,-0.168987 0.243396,-0.246497 z M 57.62594,75.104976 c -0.0554,0.43223 -0.09073,0.893891 -0.09043,1.411801 -1.6e-4,-0.51809 0.03493,-0.979511 0.09043,-1.411801 z m 17.928621,0 c 0.0554,0.43223 0.09066,0.893891 0.09043,1.411801 2e-4,-0.51809 -0.03493,-0.979511 -0.09043,-1.411801 z m 26.040269,0.0124 c -0.0554,0.43223 -0.0907,0.89389 -0.0904,1.4118 -1.6e-4,-0.51809 0.0349,-0.97951 0.0904,-1.4118 z m 17.92862,0 c 0.0555,0.43229 0.0906,0.89371 0.0904,1.4118 2.3e-4,-0.51791 -0.035,-0.97957 -0.0904,-1.4118 z m 4.05609,0.0041 c -0.0557,0.43281 -0.0907,0.89453 -0.0904,1.41335 -3e-4,-0.51854 0.0349,-0.98067 0.0904,-1.41335 z m -49.114835,1.917195 c -0.119276,0.466748 -0.336033,0.885683 -0.633036,1.260389 0.296824,-0.37485 0.513923,-0.793552 0.633036,-1.260389 z m 43.968895,0.0124 c -0.11928,0.466747 -0.33604,0.885682 -0.63304,1.260388 0.29683,-0.37485 0.51392,-0.793551 0.63304,-1.260388 z m -66.020779,0.211873 c -0.378424,1.126926 -1.348774,1.957768 -2.636531,2.5554 -0.520597,0.241598 -1.087878,0.43739 -1.671733,0.589111 -0.07189,-0.177372 -0.136043,-0.361621 -0.192236,-0.556038 h -1.111043 c 0.06702,0.27481 0.14591,0.534588 0.236161,0.782381 -0.842084,0.140682 -1.681144,0.194501 -2.431376,0.165364 v 0.0021 c 0.750435,0.02913 1.589579,-0.0246 2.431893,-0.165365 0.144101,0.395298 0.317203,0.759942 0.516247,1.106909 0.50795,0.88544 1.147288,1.662376 1.867587,2.678906 0,0 1.750702,2.351056 2.289782,3.290756 0.36612,0.63821 0.626941,1.290332 0.760161,2.166792 h 1.081587 c -0.15094,-1.0839 -0.4609,-1.941165 -0.90072,-2.707845 -0.50795,-0.88543 -1.147276,-1.662376 -1.867586,-2.678906 0,0 -1.750713,-2.351055 -2.289783,-3.290755 -0.14768,-0.257431 -0.278327,-0.517052 -0.390157,-0.792717 0.583597,-0.151692 1.150836,-0.347097 1.671216,-0.588594 1.288254,-0.597861 2.258454,-1.42978 2.636531,-2.557467 z m 28.355376,0.0098 c 0.377854,1.128163 1.347921,1.959956 2.636531,2.557983 0.520325,0.241471 1.087172,0.437424 1.670699,0.589111 -0.111997,0.275601 -0.242508,0.534823 -0.390157,0.7922 -0.53907,0.9397 -2.289783,3.290755 -2.289783,3.290755 -0.72031,1.01653 -1.359636,1.793477 -1.867586,2.678907 -0.4383,0.76405 -0.747083,1.618979 -0.898653,2.697509 h 1.081071 c 0.13369,-0.87125 0.394447,-1.520767 0.759127,-2.156457 0.53907,-0.9397 2.289783,-3.290755 2.289783,-3.290755 0.72031,-1.01653 1.359636,-1.793467 1.867586,-2.678907 0.198953,-0.346812 0.371749,-0.711648 0.515731,-1.106909 0.842437,0.140816 1.68186,0.194505 2.432409,0.165365 v -0.0021 c -0.750345,0.02913 -1.589685,-0.02412 -2.431893,-0.164848 0.09135,-0.250984 0.171182,-0.514605 0.238745,-0.793233 h -1.110009 c -0.05694,0.198294 -0.12255,0.385811 -0.195854,0.566373 -0.583786,-0.151713 -1.150672,-0.347539 -1.671216,-0.589111 -1.287772,-0.597634 -2.258102,-1.428872 -2.636531,-2.555916 z m 7.806758,3.538802 v 0.0021 c 0.750436,0.02913 1.58958,-0.0246 2.431893,-0.165365 0.144102,0.395299 0.317203,0.760459 0.516248,1.107426 0.50795,0.88544 1.147287,1.662376 1.867586,2.678906 0,0 1.750703,2.351056 2.289783,3.290756 0.36612,0.63821 0.62694,1.290332 0.76016,2.166792 h 1.081588 c -0.15094,-1.0839 -0.4609,-1.941165 -0.90072,-2.707845 -0.50795,-0.88543 -1.147277,-1.662376 -1.867587,-2.678906 0,0 -1.750712,-2.351055 -2.289782,-3.290755 -0.14768,-0.257431 -0.278327,-0.517052 -0.390158,-0.792716 0.583597,-0.151693 1.150837,-0.347614 1.671216,-0.589112 1.288611,-0.598027 2.258678,-1.42982 2.636532,-2.557983 -0.378316,1.127157 -1.348602,1.958204 -2.636532,2.555916 -0.520597,0.241599 -1.087878,0.43739 -1.671732,0.589111 -0.07188,-0.177372 -0.136043,-0.361104 -0.192237,-0.555521 H 90.77017 c 0.06702,0.27481 0.14591,0.534588 0.236161,0.782381 -0.842083,0.140683 -1.681144,0.193985 -2.431376,0.164848 z M 124.73709,77.28618 c 0.37808,1.127687 1.34828,1.959088 2.63653,2.556949 0.52033,0.241471 1.08717,0.437425 1.6707,0.589112 -0.112,0.2756 -0.24251,0.535339 -0.39016,0.792716 -0.53907,0.9397 -2.28978,3.290755 -2.28978,3.290755 -0.72031,1.01653 -1.35964,1.793477 -1.86759,2.678907 -0.4383,0.76405 -0.74708,1.618979 -0.89865,2.697509 h 1.08107 c 0.13369,-0.87125 0.39445,-1.520767 0.75913,-2.156457 0.53907,-0.9397 2.28978,-3.290755 2.28978,-3.290755 0.72031,-1.01653 1.35964,-1.793466 1.86759,-2.678906 0.19895,-0.346813 0.37175,-0.711649 0.51573,-1.10691 0.84244,0.140816 1.68186,0.193988 2.43241,0.164848 v -0.0015 c -0.75035,0.02913 -1.58969,-0.02464 -2.4319,-0.165365 0.0914,-0.250984 0.17119,-0.514088 0.23875,-0.792716 h -1.11001 c -0.0569,0.198294 -0.12255,0.385811 -0.19585,0.566374 -0.58379,-0.151714 -1.15068,-0.34754 -1.67122,-0.589112 -1.2876,-0.597553 -2.25799,-1.428586 -2.63653,-2.555399 z m -50.905421,1.013374 c -0.494997,0.624372 -1.212765,1.126075 -2.071191,1.524455 -0.510707,0.237007 -1.073693,0.432266 -1.670183,0.585494 -0.08661,-0.215924 -0.161908,-0.441849 -0.225826,-0.683162 0.0108,0.0408 0.01899,0.0852 0.03049,0.125057 h -1.11621 c 0.06685,0.275807 0.146243,0.535827 0.237194,0.783414 -1.57107,0.260491 -3.284998,0.26037 -4.855517,-5.16e-4 0.09002,-0.247848 0.168811,-0.508079 0.235644,-0.782898 h -1.11001 c 0.009,-0.0303 0.01237,-0.0679 0.02067,-0.0987 -0.06243,0.230864 -0.135074,0.448114 -0.218074,0.65629 -0.596071,-0.153187 -1.158421,-0.348199 -1.668632,-0.584977 -0.68689,-0.318775 -1.28363,-0.703737 -1.748214,-1.164787 0.464613,0.461477 1.061012,0.847419 1.748214,1.166337 0.510051,0.236704 1.072252,0.431812 1.668115,0.584978 -0.110717,0.277484 -0.23986,0.538857 -0.387573,0.796334 -0.53907,0.9397 -2.289783,3.290755 -2.289783,3.290755 -0.72031,1.01653 -1.359646,1.793476 -1.867586,2.678906 -0.43904,0.76532 -0.748417,1.621547 -0.899687,2.702677 h 1.081588 c 0.13346,-0.8738 0.394253,-1.524695 0.759643,-2.161625 0.53907,-0.9397 2.289783,-3.290755 2.289783,-3.290755 0.72031,-1.01653 1.359646,-1.793466 1.867586,-2.678906 0.199926,-0.348509 0.373353,-0.715177 0.517798,-1.112594 1.570843,0.261005 3.285157,0.261643 4.856551,0.001 0.145918,0.39694 0.321476,0.762136 0.521932,1.11156 0.50794,0.88544 1.147276,1.662376 1.867586,2.678906 0,0 1.750703,2.351055 2.289783,3.290755 0.36978,0.644578 0.630261,1.306485 0.762227,2.196249 -0.0013,-0.01087 -7.73e-4,-0.0243 -0.0026,-0.03462 h 1.081587 c -0.15127,-1.08113 -0.460636,-1.937357 -0.899686,-2.702677 -0.50795,-0.88543 -1.147277,-1.662376 -1.867587,-2.678906 0,0 -1.750702,-2.351055 -2.289782,-3.290755 -0.147911,-0.257832 -0.277847,-0.518611 -0.389124,-0.795818 0.596281,-0.153206 1.15912,-0.348561 1.669666,-0.585494 0.858831,-0.398568 1.576257,-0.901112 2.071191,-1.526005 z m 29.486051,0.0124 c 0.49494,0.624893 1.21236,1.127436 2.0712,1.526005 0.51005,0.236703 1.07225,0.431811 1.66811,0.584977 -0.11072,0.277485 -0.23986,0.539374 -0.38757,0.796851 -0.53907,0.9397 -2.28978,3.290755 -2.28978,3.290755 -0.72031,1.01653 -1.35965,1.793476 -1.86759,2.678906 -0.43904,0.76532 -0.74842,1.621547 -0.89969,2.702677 h 1.08159 c 0.13346,-0.8738 0.39425,-1.524695 0.75964,-2.161625 0.53907,-0.9397 2.28979,-3.290755 2.28979,-3.290755 0.72031,-1.01653 1.35964,-1.793466 1.86758,-2.678906 0.19993,-0.348508 0.37335,-0.715177 0.5178,-1.112594 1.57084,0.261005 3.28516,0.261126 4.85655,5.17e-4 0.14592,0.39694 0.32148,0.762653 0.52193,1.112077 0.50794,0.88544 1.14728,1.662376 1.86759,2.678906 0,0 1.7507,2.351055 2.28978,3.290755 0.36978,0.644578 0.63026,1.305968 0.76223,2.195732 -10e-4,-0.01086 -7.7e-4,-0.02379 -0.003,-0.03411 h 1.08158 c -0.15127,-1.08113 -0.46063,-1.937357 -0.89968,-2.702677 -0.50795,-0.88543 -1.14728,-1.662376 -1.86759,-2.678906 0,0 -1.7507,-2.351055 -2.28978,-3.290755 -0.14791,-0.257832 -0.27785,-0.519127 -0.38913,-0.796334 0.59629,-0.153207 1.15912,-0.348562 1.66967,-0.585494 0.85883,-0.398569 1.57626,-0.901112 2.07119,-1.526005 -0.495,0.624371 -1.21276,1.126074 -2.07119,1.524455 -0.51071,0.237006 -1.07369,0.432265 -1.67018,0.585494 -0.0866,-0.215924 -0.16191,-0.441333 -0.22583,-0.682646 0.0108,0.0408 0.019,0.0852 0.0305,0.125057 h -1.11621 c 0.0669,0.275807 0.14624,0.535311 0.23719,0.782898 -1.57107,0.260491 -3.28499,0.26037 -4.85551,-5.17e-4 0.09,-0.247847 0.16881,-0.507562 0.23564,-0.782381 h -1.11001 c 0.009,-0.0303 0.0124,-0.0679 0.0207,-0.0987 -0.0624,0.230864 -0.13507,0.447598 -0.21807,0.655774 -0.59607,-0.153188 -1.15842,-0.3482 -1.66863,-0.584977 -0.85848,-0.398406 -1.57621,-0.900097 -2.0712,-1.524455 z m -33.629984,0.465088 c 0.0349,0.29641 0.0842,0.567841 0.145211,0.820621 -0.0612,-0.25331 -0.110251,-0.523491 -0.145211,-0.820621 z m 43.968894,0.0124 c 0.0349,0.29641 0.0842,0.567842 0.14521,0.820622 -0.0612,-0.25331 -0.11025,-0.523492 -0.14521,-0.820622 z m -49.074009,0.01447 c -0.016,0.14274 -0.04733,0.264042 -0.06873,0.398942 0.0214,-0.13482 0.05283,-0.256292 0.06873,-0.398942 z m 21.984188,0.0047 c -0.0156,0.13948 -0.04638,0.258167 -0.06718,0.390157 0.0209,-0.13202 0.05158,-0.250647 0.06718,-0.390157 z m 21.984701,0.0078 c -0.016,0.14274 -0.0473,0.264042 -0.0687,0.398942 0.0214,-0.13482 0.0528,-0.256292 0.0687,-0.398942 z m 21.98419,0.0052 c -0.0156,0.13948 -0.0464,0.258167 -0.0672,0.390157 0.0209,-0.13202 0.0516,-0.250647 0.0672,-0.390157 z m -82.384634,10.4086 c -0.0866,0.0774 -0.162019,0.164287 -0.242879,0.246497 0.081,-0.0823 0.156676,-0.168987 0.243396,-0.246497 z m 43.968892,0.0124 c -0.0866,0.0774 -0.162019,0.164286 -0.242879,0.246496 0.081,-0.0823 0.156676,-0.168986 0.243396,-0.246496 z M 57.62594,89.978487 c -0.0554,0.43223 -0.09073,0.89389 -0.09043,1.4118 -1.6e-4,-0.51809 0.03493,-0.97951 0.09043,-1.4118 z m 17.928621,0 c 0.0555,0.43229 0.09063,0.89371 0.09043,1.4118 2.3e-4,-0.51791 -0.03503,-0.97957 -0.09043,-1.4118 z m 4.056084,0.0041 c -0.0557,0.43281 -0.09065,0.894531 -0.09043,1.413351 -3e-4,-0.51854 0.03493,-0.980671 0.09043,-1.413351 z m 21.984185,0.0083 c -0.0554,0.43223 -0.0907,0.893891 -0.0904,1.411801 -1.6e-4,-0.51809 0.0349,-0.979511 0.0904,-1.411801 z m 17.92862,0 c 0.0555,0.43229 0.0906,0.893711 0.0904,1.411801 2.3e-4,-0.51791 -0.035,-0.979571 -0.0904,-1.411801 z m 4.05609,0.0041 c -0.0557,0.43281 -0.0907,0.89453 -0.0904,1.41335 -3e-4,-0.51854 0.0349,-0.98067 0.0904,-1.41335 z m -49.114835,1.917195 c -0.119276,0.466748 -0.336033,0.885683 -0.633036,1.260388 0.296824,-0.37485 0.513923,-0.793551 0.633036,-1.260388 z m 43.968895,0.0124 c -0.11928,0.466747 -0.33604,0.885682 -0.63304,1.260388 0.29683,-0.37485 0.51392,-0.793552 0.63304,-1.260388 z m -66.020779,0.211873 c -0.378424,1.126926 -1.348774,1.957767 -2.636531,2.5554 -0.514321,0.238685 -1.07413,0.432482 -1.650545,0.583426 -0.08048,-0.193178 -0.151786,-0.393943 -0.213424,-0.607198 h -1.111043 c 0.07187,0.294681 0.157273,0.572253 0.255798,0.836125 -0.848709,0.143156 -1.694915,0.19783 -2.451013,0.168465 v 0.0021 c 0.756306,0.02936 1.603103,-0.02522 2.452047,-0.168465 0.140054,0.374774 0.30607,0.721923 0.496093,1.053166 0.50795,0.88544 1.147288,1.662376 1.867587,2.678906 0,0 1.750702,2.35105 2.289782,3.29075 0.36612,0.63821 0.626941,1.29034 0.760161,2.1668 h 1.081587 c -0.15094,-1.0839 -0.4609,-1.94117 -0.90072,-2.70785 -0.50795,-0.88543 -1.147276,-1.66237 -1.867586,-2.678903 0,0 -1.750713,-2.351055 -2.289783,-3.290755 -0.138474,-0.241384 -0.261946,-0.484389 -0.36897,-0.74104 0.576151,-0.150915 1.135931,-0.344845 1.650029,-0.583427 1.288254,-0.597862 2.258454,-1.42978 2.636531,-2.557467 z m 28.355376,0.0098 c 0.377854,1.128164 1.347921,1.959957 2.636531,2.557984 0.514034,0.238551 1.073443,0.43252 1.649512,0.583427 -0.107182,0.256591 -0.230525,0.499707 -0.36897,0.74104 -0.53907,0.9397 -2.289783,3.290755 -2.289783,3.290755 -0.72031,1.016529 -1.359636,1.793479 -1.867586,2.678909 -0.4383,0.76405 -0.747083,1.61898 -0.898653,2.69751 h 1.081071 c 0.13369,-0.87125 0.394447,-1.52077 0.759127,-2.15646 0.53907,-0.9397 2.289783,-3.290756 2.289783,-3.290756 0.72031,-1.01653 1.359636,-1.793466 1.867586,-2.678906 0.189935,-0.331093 0.356158,-0.678425 0.496094,-1.053166 0.849063,0.143291 1.69563,0.197833 2.452046,0.168466 v -0.0021 c -0.756207,0.02936 -1.602702,-0.02526 -2.45153,-0.168466 0.09963,-0.267044 0.185996,-0.547941 0.258382,-0.84646 h -1.110009 c -0.06236,0.217165 -0.134588,0.421707 -0.216525,0.618051 -0.576334,-0.150936 -1.136288,-0.345289 -1.650545,-0.583944 -1.287772,-0.597634 -2.258102,-1.428872 -2.636531,-2.555917 z m 7.806758,3.538803 v 0.0021 c 0.756307,0.02936 1.603103,-0.02522 2.452047,-0.168466 0.140054,0.374774 0.30607,0.722441 0.496094,1.053683 0.50795,0.88544 1.147287,1.662376 1.867586,2.678906 0,0 1.750703,2.351059 2.289783,3.290759 0.36612,0.63821 0.62694,1.29033 0.76016,2.16679 h 1.081588 c -0.15094,-1.0839 -0.4609,-1.94116 -0.90072,-2.70784 -0.50795,-0.88543 -1.147277,-1.66238 -1.867587,-2.678912 0,0 -1.750712,-2.351055 -2.289782,-3.290755 -0.138475,-0.241384 -0.261947,-0.484906 -0.36897,-0.741557 0.576151,-0.150914 1.135931,-0.344845 1.650028,-0.583427 1.288611,-0.598027 2.258678,-1.42982 2.636532,-2.557983 -0.378316,1.127157 -1.348602,1.958203 -2.636532,2.555916 -0.51432,0.238686 -1.07413,0.432999 -1.650545,0.583944 -0.08048,-0.193179 -0.151786,-0.393944 -0.213424,-0.607199 H 90.77017 c 0.07187,0.294681 0.157274,0.571737 0.255798,0.835608 -0.848709,0.143157 -1.694914,0.19783 -2.451013,0.168466 z m 36.162135,-3.525367 c 0.37808,1.127687 1.34828,1.959089 2.63653,2.55695 0.51403,0.238551 1.07344,0.43252 1.64951,0.583427 -0.10718,0.256592 -0.23052,0.500224 -0.36897,0.741557 -0.53907,0.9397 -2.28978,3.290755 -2.28978,3.290755 -0.72031,1.01653 -1.35964,1.79347 -1.86759,2.6789 -0.4383,0.76405 -0.74708,1.61898 -0.89865,2.69751 h 1.08107 c 0.13369,-0.87125 0.39445,-1.52076 0.75913,-2.15645 0.53907,-0.9397 2.28978,-3.290757 2.28978,-3.290757 0.72031,-1.01653 1.35964,-1.793466 1.86759,-2.678906 0.18993,-0.331093 0.35615,-0.678942 0.49609,-1.053682 0.84906,0.14329 1.69563,0.197833 2.45205,0.168465 v -0.0016 c -0.75621,0.02936 -1.6027,-0.02526 -2.45153,-0.168466 0.0996,-0.267044 0.18599,-0.547941 0.25838,-0.84646 h -1.11001 c -0.0624,0.217165 -0.13459,0.421191 -0.21652,0.617534 -0.57634,-0.150935 -1.13629,-0.344772 -1.65055,-0.583427 -1.2876,-0.597554 -2.25799,-1.428586 -2.63653,-2.5554 z m -65.388258,1.013375 c 0.494936,0.624893 1.21236,1.127436 2.071192,1.526005 0.504102,0.233943 1.059311,0.426951 1.647444,0.579293 -0.105983,0.258459 -0.22836,0.503683 -0.366902,0.745174 -0.53907,0.9397 -2.289783,3.290755 -2.289783,3.290755 -0.72031,1.016527 -1.359646,1.793477 -1.867586,2.678907 -0.43904,0.76532 -0.748417,1.62155 -0.899687,2.70268 h 1.081588 c 0.13346,-0.8738 0.394253,-1.5247 0.759643,-2.16163 0.53907,-0.9397 2.289783,-3.290753 2.289783,-3.290753 0.72031,-1.01653 1.359646,-1.793467 1.867586,-2.678907 0.190909,-0.332789 0.357736,-0.681982 0.498161,-1.05885 1.582849,0.265403 3.312946,0.265547 4.896342,5.17e-4 0.141871,0.376343 0.31037,0.724681 0.501778,1.058333 0.50794,0.88544 1.147276,1.662377 1.867586,2.678907 0,0 1.750703,2.351053 2.289783,3.290753 0.36978,0.64458 0.630261,1.30648 0.762227,2.19625 -0.0013,-0.0109 -7.73e-4,-0.0243 -0.0026,-0.0346 h 1.081587 c -0.15127,-1.08113 -0.460636,-1.93736 -0.899686,-2.70268 -0.50795,-0.88543 -1.147277,-1.66238 -1.867587,-2.678907 0,0 -1.750702,-2.351055 -2.289782,-3.290755 -0.138723,-0.241816 -0.261414,-0.486488 -0.367936,-0.744657 0.58851,-0.152381 1.143915,-0.345654 1.648478,-0.57981 0.858831,-0.398569 1.576257,-0.901112 2.071191,-1.526005 -0.494997,0.624372 -1.212765,1.126074 -2.071191,1.524455 -0.504728,0.234232 -1.060271,0.427406 -1.648995,0.57981 -0.09545,-0.231513 -0.177999,-0.473763 -0.247014,-0.734323 0.0108,0.0408 0.01899,0.0852 0.03049,0.125057 h -1.11621 c 0.07168,0.295767 0.158036,0.573533 0.257348,0.837159 -1.583065,0.264907 -3.31279,0.264247 -4.895308,-0.001 0.09828,-0.263935 0.183615,-0.541429 0.255281,-0.836125 H 63.28606 c 0.009,-0.0303 0.01237,-0.0679 0.02067,-0.0987 -0.06759,0.249972 -0.147022,0.484121 -0.238745,0.707968 -0.588346,-0.152366 -1.143694,-0.345791 -1.647961,-0.57981 -0.858476,-0.398405 -1.576205,-0.900097 -2.071192,-1.524455 z m 43.968888,0.0124 c 0.49494,0.624892 1.21236,1.127436 2.0712,1.526005 0.5041,0.233943 1.05931,0.427467 1.64744,0.579809 -0.10598,0.258459 -0.22836,0.503683 -0.3669,0.745174 -0.53907,0.9397 -2.28978,3.290756 -2.28978,3.290756 -0.72031,1.01653 -1.35965,1.79348 -1.86759,2.67891 -0.43904,0.76532 -0.74842,1.62154 -0.89969,2.70267 h 1.08159 c 0.13346,-0.8738 0.39425,-1.52469 0.75964,-2.16162 0.53907,-0.9397 2.28979,-3.290757 2.28979,-3.290757 0.72031,-1.01653 1.35964,-1.793466 1.86758,-2.678906 0.19091,-0.33279 0.35774,-0.682499 0.49816,-1.059367 1.58285,0.265402 3.31295,0.266063 4.89635,10e-4 0.14187,0.376343 0.31037,0.724681 0.50177,1.058334 0.50794,0.88544 1.14728,1.662376 1.86759,2.678906 0,0 1.7507,2.35106 2.28978,3.29076 0.36978,0.64458 0.63026,1.30597 0.76223,2.19573 -10e-4,-0.0109 -7.7e-4,-0.0238 -0.003,-0.0341 h 1.08158 c -0.15127,-1.08113 -0.46063,-1.93735 -0.89968,-2.70267 -0.50795,-0.88543 -1.14728,-1.66238 -1.86759,-2.678913 0,0 -1.7507,-2.351056 -2.28978,-3.290756 -0.13873,-0.241816 -0.26142,-0.487004 -0.36794,-0.745174 0.58851,-0.15238 1.14392,-0.345654 1.64848,-0.579809 0.85883,-0.398569 1.57626,-0.901113 2.07119,-1.526005 -0.495,0.624371 -1.21276,1.126074 -2.07119,1.524454 -0.50473,0.234232 -1.06027,0.427923 -1.64899,0.580327 -0.0955,-0.231513 -0.178,-0.473763 -0.24702,-0.734322 0.0108,0.0408 0.019,0.0852 0.0305,0.125056 h -1.11621 c 0.0717,0.295767 0.15804,0.573017 0.25735,0.836642 -1.58307,0.264907 -3.31279,0.264764 -4.89531,-5.17e-4 0.0983,-0.263934 0.18361,-0.541429 0.25528,-0.836125 h -1.11001 c 0.009,-0.0303 0.0124,-0.0679 0.0207,-0.0987 -0.0676,0.249972 -0.14702,0.483604 -0.23874,0.707451 -0.58835,-0.152366 -1.1437,-0.345791 -1.64796,-0.57981 -0.85848,-0.398405 -1.57621,-0.900097 -2.0712,-1.524454 z M 69.687736,93.59377 c 0.0349,0.29641 0.0842,0.567842 0.145211,0.820622 -0.0612,-0.25331 -0.110251,-0.523492 -0.145211,-0.820622 z m 43.968894,0.0124 c 0.0349,0.29641 0.0842,0.567841 0.14521,0.820621 -0.0612,-0.25331 -0.11025,-0.523491 -0.14521,-0.820621 z m -49.074009,0.01447 c -0.016,0.14274 -0.04733,0.264042 -0.06873,0.398942 0.0214,-0.13482 0.05283,-0.256292 0.06873,-0.398942 z m 21.984188,0.0047 c -0.0156,0.13951 -0.04628,0.258137 -0.06718,0.390157 0.0208,-0.13199 0.05158,-0.250677 0.06718,-0.390157 z m 21.984701,0.0078 c -0.016,0.14274 -0.0473,0.264042 -0.0687,0.398942 0.0214,-0.13482 0.0528,-0.256292 0.0687,-0.398942 z m 21.98419,0.0052 c -0.0156,0.13951 -0.0463,0.258137 -0.0672,0.390157 0.0208,-0.13199 0.0516,-0.250677 0.0672,-0.390157 z m -72.90976,11.15681 c -0.0554,0.43223 -0.09073,0.89389 -0.09043,1.4118 -1.6e-4,-0.51809 0.03493,-0.97951 0.09043,-1.4118 z m 17.928621,0 c 0.0555,0.43229 0.09063,0.89371 0.09043,1.4118 2.3e-4,-0.51791 -0.03503,-0.97957 -0.09043,-1.4118 z m 4.056084,0.004 c -0.0557,0.43281 -0.09065,0.89453 -0.09043,1.41335 -3e-4,-0.51854 0.03493,-0.98067 0.09043,-1.41335 z m 21.984185,0.008 c -0.0554,0.43223 -0.0907,0.89389 -0.0904,1.4118 -1.6e-4,-0.51809 0.0349,-0.97951 0.0904,-1.4118 z m 17.92862,0 c 0.0555,0.43229 0.0906,0.89371 0.0904,1.4118 2.3e-4,-0.51791 -0.035,-0.97957 -0.0904,-1.4118 z m 4.05609,0.004 c -0.0557,0.43281 -0.0907,0.89453 -0.0904,1.41335 -3e-4,-0.51854 0.0349,-0.98067 0.0904,-1.41335 z m -49.114835,1.9172 c -0.119276,0.46674 -0.336033,0.88568 -0.633036,1.26038 0.296824,-0.37485 0.513923,-0.79355 0.633036,-1.26038 z m 43.968895,0.0124 c -0.11928,0.46675 -0.33604,0.88568 -0.63304,1.26039 0.29683,-0.37485 0.51392,-0.79356 0.63304,-1.26039 z m -66.020779,0.21187 c -0.378424,1.12693 -1.348774,1.95777 -2.636531,2.5554 -1.573609,0.73028 -3.573309,1.04284 -5.170227,0.98082 v 0.002 c 1.596918,0.062 3.596618,-0.25054 5.170227,-0.98082 1.288254,-0.59786 2.258454,-1.42978 2.636531,-2.55747 z m 28.355376,0.01 c 0.377854,1.12816 1.347921,1.95996 2.636531,2.55798 1.57362,0.73028 3.573307,1.04282 5.170227,0.98082 v -0.002 c -1.59692,0.062 -3.596607,-0.25054 -5.170227,-0.98082 -1.287772,-0.59764 -2.258102,-1.42888 -2.636531,-2.55592 z m 7.806758,3.5388 v 0.002 c 1.596918,0.062 3.596618,-0.25054 5.170227,-0.98082 1.288611,-0.59803 2.258678,-1.42982 2.636532,-2.55798 -0.378316,1.12715 -1.348602,1.9582 -2.636532,2.55591 -1.573609,0.73028 -3.573309,1.04284 -5.170227,0.98082 z m 36.162135,-3.52536 c 0.37808,1.12768 1.34828,1.95908 2.63653,2.55695 1.57362,0.73028 3.57331,1.04281 5.17023,0.98081 v -0.002 c -1.59692,0.062 -3.59661,-0.25053 -5.17023,-0.98081 -1.2876,-0.59756 -2.25799,-1.42859 -2.63653,-2.5554 z m -65.388258,1.01337 c 0.494936,0.62489 1.21236,1.12744 2.071192,1.52601 2.88902,1.34073 7.449484,1.34163 10.340454,0 0.858831,-0.39857 1.576257,-0.90112 2.071191,-1.52601 -0.494997,0.62437 -1.212765,1.12608 -2.071191,1.52446 -2.89097,1.34163 -7.451434,1.34073 -10.340454,0 -0.858476,-0.39841 -1.576205,-0.9001 -2.071192,-1.52446 z m 43.968888,0.0124 c 0.49494,0.6249 1.21236,1.12744 2.0712,1.52601 2.88902,1.34073 7.44948,1.34163 10.34045,0 0.85883,-0.39857 1.57626,-0.90111 2.07119,-1.52601 -0.495,0.62437 -1.21276,1.12608 -2.07119,1.52446 -2.89097,1.34163 -7.45143,1.34073 -10.34045,0 -0.85848,-0.39841 -1.57621,-0.9001 -2.0712,-1.52446 z" />
    </g>
  </g>
</svg>
