<?xml version="1.0" encoding="UTF-8" standalone="no"?>
<!-- Created with Inkscape (http://www.inkscape.org/) -->

<svg
   width="30.000006mm"
   height="18.539793mm"
   viewBox="0 0 30.000006 18.539793"
   version="1.1"
   id="svg1"
   xmlns="http://www.w3.org/2000/svg"
   xmlns:svg="http://www.w3.org/2000/svg">
  <defs
     id="defs1" />
  <g
     id="layer1"
     transform="translate(-44.565243,-57.226335)">
    <g
       id="g18"
       transform="matrix(0.34083199,0,0,0.34083199,29.375984,37.72177)"
       style="stroke-width:2.93407">
      <path
         id="rect16"
         style="display:inline;opacity:0.465;fill:#ff0000;fill-opacity:0.943794;fill-rule:evenodd;stroke:#000000;stroke-width:0;stroke-linecap:butt;stroke-dasharray:none;stroke-dashoffset:0"
         d="m 55.633297,57.226481 c -1.75819,-0.008 -3.879386,0.314569 -5.659086,1.140499 -1.779707,0.82593 -3.261881,2.225482 -3.425631,4.246252 l -0.0016,0.02325 v 0.02119 c -3.9e-4,0.90125 0.0876,1.657812 0.24908,2.321822 h 1.116728 c -0.1787,-0.61818 -0.276066,-1.340982 -0.278536,-2.286682 0.12861,-1.5365 1.226291,-2.612578 2.796728,-3.341398 1.5717,-0.72939 3.56863,-1.04182 5.16506,-1.03973 1.59643,0.002 3.59609,0.314618 5.16971,1.044898 1.57044,0.72882 2.668118,1.804898 2.796728,3.341398 -0.002,0.94306 -0.0981,1.664474 -0.275952,2.281514 h 1.115695 c 0.16065,-0.66279 0.248426,-1.417704 0.248046,-2.316654 v -0.02119 l -0.0021,-0.02325 c -0.16375,-2.02077 -1.64592,-3.420322 -3.42563,-4.246252 -1.7505,-0.81238 -3.831133,-1.137737 -5.589323,-1.145667 z m 21.984188,0.0047 v 5.17e-4 c -1.7582,-0.008 -3.879387,0.314569 -5.659087,1.140499 -1.7797,0.82593 -3.26188,2.225482 -3.42563,4.246252 l -0.0021,0.02325 v 0.02119 c -3.9e-4,0.89895 0.0874,1.653864 0.248047,2.316654 h 1.11621 c -0.17774,-0.61704 -0.274008,-1.338454 -0.276468,-2.281514 0.12861,-1.5365 1.226288,-2.612578 2.796728,-3.341398 1.57171,-0.72939 3.56863,-1.04182 5.16506,-1.03973 1.59643,0.002 3.59609,0.314617 5.16971,1.044897 1.57044,0.72882 2.668118,1.804898 2.796728,3.341398 -0.002,0.94043 -0.09811,1.660447 -0.274918,2.276347 h 1.115694 c 0.15983,-0.66152 0.247403,-1.414917 0.247013,-2.311487 v -0.02119 l -0.0021,-0.02377 c -0.16376,-2.02077 -1.645921,-3.420322 -3.425631,-4.246252 -1.7505,-0.81238 -3.831132,-1.137737 -5.589322,-1.145667 z m 21.984704,0.0078 c -1.758189,-0.008 -3.879386,0.314569 -5.659086,1.140499 -1.779707,0.82593 -3.261881,2.225483 -3.425631,4.246253 l -0.0015,0.02325 v 0.02119 c -3.9e-4,0.90125 0.0876,1.657813 0.24908,2.321823 h 1.116728 c -0.1787,-0.61818 -0.276066,-1.340983 -0.278536,-2.286683 0.12861,-1.5365 1.226292,-2.612578 2.796729,-3.341398 1.5717,-0.72939 3.56863,-1.041819 5.165059,-1.039729 1.596438,0.002 3.596088,0.314617 5.169708,1.044897 1.57044,0.72882 2.66812,1.804898 2.79673,3.341398 -0.002,0.94306 -0.0981,1.664475 -0.27595,2.281515 h 1.11569 c 0.16065,-0.66279 0.24843,-1.417705 0.24805,-2.316655 v -0.02119 l -0.002,-0.02325 c -0.16375,-2.02077 -1.64592,-3.420322 -3.42563,-4.246252 -1.7505,-0.81238 -3.83113,-1.137737 -5.589321,-1.145667 z m 21.984191,0.0052 c -1.7582,-0.008 -3.87939,0.314569 -5.65909,1.140499 -1.7797,0.82593 -3.26188,2.225482 -3.42563,4.246252 l -0.002,0.02325 v 0.02119 c -3.9e-4,0.89895 0.0874,1.653865 0.24805,2.316655 h 1.11621 c -0.17774,-0.61704 -0.27401,-1.338455 -0.27647,-2.281515 0.12861,-1.5365 1.22629,-2.612578 2.79673,-3.341398 1.57171,-0.72939 3.56863,-1.04182 5.16506,-1.03973 1.59643,0.002 3.59609,0.314618 5.16971,1.044898 1.57044,0.72882 2.66812,1.804898 2.79673,3.341398 -0.002,0.94043 -0.0981,1.660447 -0.27492,2.276347 h 1.11569 c 0.15983,-0.66152 0.24741,-1.414917 0.24702,-2.311487 v -0.02119 l -0.002,-0.02325 c -0.16376,-2.02077 -1.64592,-3.420322 -3.42563,-4.246252 -1.7505,-0.81238 -3.83113,-1.137737 -5.58932,-1.145667 z M 55.633297,72.099992 c -1.75819,-0.008 -3.879386,0.314569 -5.659086,1.140499 -1.779707,0.82593 -3.261881,2.225482 -3.425631,4.246252 l -0.0016,0.02325 v 0.02119 c -3.9e-4,0.90125 0.0876,1.657812 0.24908,2.321822 h 1.116728 c -0.1787,-0.61818 -0.276066,-1.340982 -0.278536,-2.286682 0.12861,-1.5365 1.226291,-2.612578 2.796728,-3.341398 1.5717,-0.72939 3.56863,-1.04182 5.16506,-1.03973 1.59643,0.002 3.59609,0.314617 5.16971,1.044897 1.57044,0.72882 2.668118,1.804899 2.796728,3.341399 -0.002,0.94306 -0.0981,1.664474 -0.275952,2.281514 h 1.115695 c 0.16065,-0.66279 0.248426,-1.417704 0.248046,-2.316654 v -0.02119 l -0.0021,-0.02325 c -0.16375,-2.02077 -1.64592,-3.420323 -3.42563,-4.246253 -1.7505,-0.81238 -3.831133,-1.137736 -5.589323,-1.145666 z m 21.984188,0.0052 c -1.7582,-0.008 -3.879387,0.314568 -5.659087,1.140498 -1.7797,0.82593 -3.26188,2.225483 -3.42563,4.246253 l -0.0021,0.02325 v 0.02119 c -3.9e-4,0.89895 0.0874,1.653864 0.248047,2.316654 h 1.11621 c -0.17774,-0.61704 -0.274008,-1.338454 -0.276468,-2.281514 0.12861,-1.5365 1.226288,-2.612579 2.796728,-3.341399 1.57171,-0.72939 3.56863,-1.041819 5.16506,-1.039729 1.59643,0.002 3.59609,0.314617 5.16971,1.044897 1.57044,0.72882 2.668118,1.804898 2.796728,3.341398 -0.002,0.94043 -0.09811,1.660447 -0.274918,2.276347 h 1.115694 c 0.15983,-0.66152 0.247403,-1.414917 0.247013,-2.311487 v -0.02119 l -0.0021,-0.02325 c -0.16376,-2.02077 -1.645921,-3.420322 -3.425631,-4.246252 -1.7505,-0.81238 -3.831132,-1.137736 -5.589322,-1.145666 z m 21.984704,0.0072 c -1.758189,-0.008 -3.879386,0.314569 -5.659086,1.140499 -1.779707,0.82593 -3.261881,2.225483 -3.425631,4.246253 l -0.0015,0.02325 v 0.02119 c -3.9e-4,0.90125 0.0876,1.657812 0.24908,2.321822 h 1.116728 c -0.1787,-0.61818 -0.276066,-1.340982 -0.278536,-2.286682 0.12861,-1.5365 1.226292,-2.612578 2.796729,-3.341398 1.5717,-0.72939 3.56863,-1.04182 5.165059,-1.03973 1.596438,0.002 3.596088,0.314618 5.169708,1.044898 1.57044,0.72882 2.66812,1.804898 2.79673,3.341398 -0.002,0.94306 -0.0981,1.664474 -0.27595,2.281514 h 1.11569 c 0.16065,-0.66279 0.24843,-1.417704 0.24805,-2.316654 v -0.02119 l -0.002,-0.02326 c -0.16375,-2.02077 -1.64592,-3.420322 -3.42563,-4.246252 -1.7505,-0.81238 -3.83113,-1.137737 -5.589321,-1.145667 z m 21.984191,0.0052 c -1.7582,-0.008 -3.87939,0.314569 -5.65909,1.140499 -1.7797,0.82593 -3.26188,2.225482 -3.42563,4.246252 l -0.002,0.02326 v 0.02119 c -3.9e-4,0.89895 0.0874,1.653864 0.24805,2.316654 h 1.11621 c -0.17774,-0.61704 -0.27401,-1.338454 -0.27647,-2.281514 0.12861,-1.5365 1.22629,-2.612578 2.79673,-3.341398 1.57171,-0.72939 3.56863,-1.04182 5.16506,-1.03973 1.59643,0.002 3.59609,0.314617 5.16971,1.044897 1.57044,0.72882 2.66812,1.8049 2.79673,3.341398 -0.002,0.94043 -0.0981,1.660447 -0.27492,2.276347 h 1.11569 c 0.15983,-0.66152 0.24741,-1.414916 0.24702,-2.311486 v -0.02119 l -0.002,-0.02325 c -0.16376,-2.02077 -1.64592,-3.420323 -3.42563,-4.246253 -1.7505,-0.81238 -3.83113,-1.137736 -5.58932,-1.145666 z m -68.021691,2.888196 -1.093473,5.16e-4 c 0.0653,0.42875 0.100342,0.910825 0.101802,1.471745 -0.12861,1.5365 -1.226288,2.612578 -2.796728,3.341398 -1.573608,0.73028 -3.573309,1.042839 -5.170227,0.980819 l -0.04082,1.083138 c 1.767068,0.0686 3.888174,-0.253591 5.667872,-1.079521 1.7797,-0.82593 3.26187,-2.225999 3.42563,-4.246769 l 0.0016,-0.02325 v -0.02119 c 2.3e-4,-0.552865 -0.03271,-1.050881 -0.0956,-1.506884 z m 5.160409,0 -1.092957,5.16e-4 c -0.0634,0.45742 -0.09693,0.957073 -0.09663,1.512053 v 0.02119 l 0.0016,0.02274 c 0.16376,2.02077 1.645931,3.420322 3.425631,4.246252 3.19431,1.48244 8.062054,1.48138 11.254094,0 1.7797,-0.82593 3.26187,-2.225482 3.42563,-4.246252 l 0.0021,-0.02326 v -0.02119 c 2.4e-4,-0.55498 -0.03324,-1.054632 -0.09664,-1.512052 H 74.45497 c 0.0658,0.43002 0.100332,0.913772 0.101802,1.476912 -0.12861,1.5365 -1.226288,2.612578 -2.796728,3.341398 -2.89097,1.34163 -7.451434,1.34073 -10.340454,0 -1.57044,-0.72882 -2.668119,-1.804898 -2.796729,-3.341398 10e-4,-0.56314 0.0365,-1.046892 0.10232,-1.476912 z m 21.985738,0 -1.093474,5.16e-4 c -0.0639,0.45882 -0.09693,0.96015 -0.09663,1.51722 v 0.0217 l 0.0015,0.02222 c 0.16376,2.02077 1.645931,3.420323 3.425631,4.246253 3.172888,1.472478 8.041886,1.493302 11.254093,0.0026 1.7797,-0.82593 3.261871,-2.226 3.425631,-4.24677 l 0.0015,-0.02325 v -0.02119 c 2.3e-4,-0.552866 -0.03271,-1.050881 -0.0956,-1.506885 l -1.093474,5.17e-4 c 0.0653,0.42875 0.100343,0.910825 0.101803,1.471745 -0.12861,1.5365 -1.226289,2.612578 -2.796729,3.341398 -1.573406,0.730186 -3.573358,1.043046 -5.170227,1.041797 -1.596868,-0.0012 -3.596607,-0.314101 -5.170227,-1.044381 -1.57044,-0.72882 -2.668118,-1.804898 -2.796728,-3.341398 10e-4,-0.56544 0.0365,-1.05075 0.102836,-1.48208 z m 21.983154,0.0124 -1.09296,5.17e-4 c -0.0634,0.45742 -0.0969,0.957072 -0.0966,1.512052 v 0.02119 l 0.002,0.02274 c 0.16376,2.02077 1.64593,3.420323 3.42563,4.246253 3.19431,1.48244 8.06205,1.48138 11.25409,0 1.7797,-0.82593 3.26187,-2.225483 3.42563,-4.246253 l 0.002,-0.02325 v -0.02119 c 2.4e-4,-0.55498 -0.0332,-1.054632 -0.0966,-1.512052 h -1.09295 c 0.0658,0.43002 0.10033,0.913772 0.1018,1.476912 -0.12861,1.5365 -1.22629,2.612579 -2.79673,3.341399 -2.89097,1.34163 -7.45143,1.34073 -10.34045,0 -1.57044,-0.72882 -2.66812,-1.804899 -2.79673,-3.341399 0.001,-0.56314 0.0365,-1.046892 0.10232,-1.476912 z m 21.98574,0 -1.09348,5.17e-4 c -0.0639,0.45882 -0.0969,0.96015 -0.0966,1.51722 v 0.0217 l 0.002,0.02222 c 0.16376,2.02077 1.64593,3.420322 3.42563,4.246252 1.77971,0.82593 3.9008,1.148638 5.66787,1.080038 l -0.0408,-1.083655 c -1.59692,0.062 -3.5966,-0.250539 -5.17022,-0.980819 -1.57044,-0.72882 -2.66812,-1.804898 -2.79673,-3.341398 0.001,-0.56544 0.0365,-1.05075 0.10283,-1.48208 z M 55.63278,86.916659 c -1.758093,-0.0079 -3.879036,0.314646 -5.658569,1.140498 -1.779707,0.82593 -3.261881,2.225483 -3.425631,4.246253 l -0.0021,0.02325 v 0.02119 c -3.9e-4,0.90125 0.0876,1.657812 0.24908,2.321822 h 1.116728 c -0.1787,-0.61818 -0.276066,-1.340982 -0.278536,-2.286682 0.12861,-1.5365 1.226292,-2.612579 2.796729,-3.341399 1.5717,-0.72939 3.568629,-1.041819 5.165059,-1.039729 1.59643,0.002 3.59609,0.314617 5.16971,1.044897 1.57044,0.72882 2.668119,1.804898 2.796729,3.341398 -0.002,0.94306 -0.09809,1.664475 -0.275952,2.281515 h 1.115694 c 0.16065,-0.66279 0.248427,-1.417705 0.248047,-2.316655 v -0.02119 l -0.0021,-0.02326 c -0.16375,-2.02077 -1.645921,-3.420322 -3.425631,-4.246252 -1.750335,-0.812303 -3.830721,-1.137677 -5.588806,-1.145666 z m 21.984705,0.0046 c -1.7582,-0.008 -3.879387,0.314569 -5.659087,1.140499 -1.7797,0.82593 -3.26188,2.225483 -3.42563,4.246253 l -0.0021,0.02325 v 0.02119 c -3.9e-4,0.89895 0.08741,1.653865 0.248047,2.316655 h 1.11621 c -0.17774,-0.61704 -0.274008,-1.338455 -0.276468,-2.281515 0.12861,-1.5365 1.226288,-2.612578 2.796728,-3.341398 1.57171,-0.72939 3.56863,-1.04182 5.16506,-1.03973 1.59643,0.002 3.59609,0.314618 5.16971,1.044898 1.57044,0.72882 2.668118,1.804898 2.796728,3.341398 -0.002,0.94043 -0.0981,1.660447 -0.274918,2.276347 h 1.115694 c 0.15983,-0.66152 0.247403,-1.414917 0.247013,-2.311487 v -0.02119 l -0.0021,-0.02326 c -0.16376,-2.02077 -1.645921,-3.420322 -3.425631,-4.246252 -1.7505,-0.81238 -3.831132,-1.137737 -5.589322,-1.145667 z m 21.984187,0.0078 c -1.758092,-0.0079 -3.879036,0.314646 -5.658569,1.140499 -1.779707,0.82593 -3.261881,2.225482 -3.425631,4.246252 l -0.0021,0.02326 v 0.02119 c -3.9e-4,0.90125 0.0876,1.657812 0.249081,2.321822 h 1.116727 c -0.1787,-0.61818 -0.276066,-1.340982 -0.278536,-2.286682 0.12861,-1.5365 1.226292,-2.612578 2.796729,-3.341398 1.5717,-0.72939 3.56863,-1.04182 5.165059,-1.03973 1.596438,0.002 3.596098,0.314617 5.169718,1.044897 1.57044,0.72882 2.66811,1.804899 2.79672,3.341399 -0.002,0.94306 -0.0981,1.664474 -0.27595,2.281514 h 1.1157 c 0.16065,-0.66279 0.24842,-1.417704 0.24804,-2.316654 v -0.02119 l -0.002,-0.02325 c -0.16375,-2.02077 -1.64592,-3.420323 -3.42563,-4.246253 -1.75034,-0.812303 -3.83072,-1.137677 -5.588814,-1.145666 z m 21.984708,0.0047 c -1.7582,-0.008 -3.87939,0.314569 -5.65909,1.140499 -1.7797,0.82593 -3.26188,2.225482 -3.42563,4.246252 l -0.002,0.02325 v 0.02119 c -3.9e-4,0.89895 0.0874,1.653864 0.24805,2.316654 h 1.11621 c -0.17774,-0.61704 -0.27401,-1.338454 -0.27647,-2.281514 0.12861,-1.5365 1.22629,-2.612578 2.79673,-3.341398 1.57171,-0.72939 3.56863,-1.04182 5.16506,-1.03973 1.59643,0.002 3.59609,0.314617 5.16971,1.044897 1.57044,0.72882 2.66812,1.804898 2.79673,3.341398 -0.002,0.94043 -0.0981,1.660447 -0.27492,2.276347 h 1.11569 c 0.15983,-0.66152 0.24741,-1.414917 0.24702,-2.311487 v -0.02119 l -0.002,-0.02325 c -0.16376,-2.02077 -1.64592,-3.420323 -3.42563,-4.246253 -1.7505,-0.81238 -3.83113,-1.137736 -5.58932,-1.145666 z m -68.021691,2.945556 -1.093473,5.17e-4 c 0.0653,0.42875 0.100342,0.910825 0.101802,1.471745 -0.12861,1.5365 -1.226288,2.612578 -2.796728,3.341398 -1.573608,0.73028 -3.573309,1.042839 -5.170227,0.980819 l -0.04082,1.083138 c 1.767068,0.0686 3.888174,-0.253591 5.667872,-1.079521 1.7797,-0.82593 3.26187,-2.225999 3.42563,-4.246769 l 0.0016,-0.02325 v -0.02119 c 2.3e-4,-0.552866 -0.03271,-1.050881 -0.0956,-1.506885 z m 5.160409,0 -1.092957,5.17e-4 c -0.0634,0.45742 -0.09693,0.957073 -0.09663,1.512053 v 0.02119 l 0.0016,0.02274 c 0.16376,2.02077 1.645931,3.420322 3.425631,4.246252 3.19431,1.48244 8.062054,1.48138 11.254094,0 1.7797,-0.82593 3.26187,-2.225482 3.42563,-4.246252 l 0.0021,-0.02325 v -0.02119 c 2.4e-4,-0.55498 -0.03324,-1.054633 -0.09664,-1.512053 H 74.45497 c 0.0658,0.43002 0.100332,0.913773 0.101802,1.476913 -0.12861,1.5365 -1.226288,2.612578 -2.796728,3.341398 -2.89097,1.34163 -7.451434,1.34073 -10.340454,0 -1.57044,-0.72882 -2.668119,-1.804898 -2.796729,-3.341398 10e-4,-0.56314 0.0365,-1.046893 0.10232,-1.476913 z m 21.985738,0 -1.093474,5.17e-4 c -0.0639,0.45882 -0.09693,0.96015 -0.09663,1.51722 v 0.0217 l 0.0015,0.02222 c 0.16376,2.02077 1.645931,3.420323 3.425631,4.246253 3.172894,1.472479 8.041889,1.4933 11.254093,0.0026 1.7797,-0.82593 3.261871,-2.225999 3.425631,-4.246769 l 0.0015,-0.02325 v -0.02119 c 2.3e-4,-0.552866 -0.03271,-1.050882 -0.0956,-1.506885 l -1.093474,5.16e-4 c 0.0653,0.42875 0.100343,0.910825 0.101803,1.471745 -0.12861,1.5365 -1.226289,2.612578 -2.796729,3.341398 -1.573406,0.730187 -3.573358,1.042531 -5.170227,1.041281 -1.596868,-0.0012 -3.596607,-0.313584 -5.170227,-1.043864 -1.57044,-0.72882 -2.668118,-1.804899 -2.796728,-3.341399 10e-4,-0.56544 0.0365,-1.05075 0.102836,-1.48208 z m 21.983154,0.0124 -1.09296,5.16e-4 c -0.0634,0.45742 -0.0969,0.957073 -0.0966,1.512053 v 0.02119 l 0.002,0.02274 c 0.16376,2.02077 1.64593,3.420322 3.42563,4.246252 3.19431,1.48244 8.06205,1.48138 11.25409,0 1.7797,-0.82593 3.26187,-2.225482 3.42563,-4.246252 l 0.002,-0.02326 v -0.02119 c 2.4e-4,-0.55498 -0.0332,-1.054632 -0.0966,-1.512052 h -1.09295 c 0.0658,0.43002 0.10033,0.913772 0.1018,1.476912 -0.12861,1.5365 -1.22629,2.612578 -2.79673,3.341398 -2.89097,1.34163 -7.45143,1.34073 -10.34045,0 -1.57044,-0.72882 -2.66812,-1.804898 -2.79673,-3.341398 0.001,-0.56314 0.0365,-1.046892 0.10232,-1.476912 z m 21.98574,0 -1.09348,5.16e-4 c -0.0639,0.45882 -0.0969,0.960151 -0.0966,1.517221 v 0.0217 l 0.002,0.02222 c 0.16376,2.02077 1.64593,3.420322 3.42563,4.246252 1.77971,0.82593 3.9008,1.148637 5.66787,1.080037 l -0.0408,-1.083654 c -1.59692,0.062 -3.5966,-0.250539 -5.17022,-0.980819 -1.57044,-0.72882 -2.66812,-1.804898 -2.79673,-3.341398 0.001,-0.56544 0.0365,-1.05075 0.10283,-1.48208 z m -71.114524,14.803745 -1.09399,5.2e-4 c 0.0653,0.42875 0.100342,0.91082 0.101802,1.47174 -0.12861,1.5365 -1.226288,2.61258 -2.796728,3.3414 -1.573608,0.73028 -3.573309,1.04284 -5.170227,0.98082 l -0.04082,1.08313 c 1.767068,0.0686 3.888174,-0.25359 5.667872,-1.07952 1.7797,-0.82593 3.26187,-2.226 3.42563,-4.24677 l 0.0021,-0.0233 v -0.0212 c 2.3e-4,-0.55289 -0.0327,-1.05086 -0.0956,-1.50688 z m 5.160408,0 -1.093473,5.2e-4 c -0.0634,0.45742 -0.09693,0.95707 -0.09663,1.51205 v 0.0212 l 0.0021,0.0227 c 0.16376,2.02077 1.645931,3.42032 3.425631,4.24625 3.19431,1.48244 8.062053,1.48138 11.254093,0 1.7797,-0.82593 3.261871,-2.22548 3.425631,-4.24625 l 0.0021,-0.0232 v -0.0212 c 2.4e-4,-0.55498 -0.03323,-1.05463 -0.09663,-1.51205 H 74.45548 c 0.0658,0.43002 0.100332,0.91377 0.101802,1.47691 -0.12861,1.5365 -1.226288,2.61258 -2.796728,3.3414 -2.89097,1.34163 -7.451434,1.34073 -10.340454,0 -1.57044,-0.72882 -2.668119,-1.8049 -2.796729,-3.3414 10e-4,-0.56314 0.0365,-1.04689 0.102319,-1.47691 z m 21.984705,0 -1.092957,5.2e-4 c -0.0639,0.45882 -0.09693,0.96015 -0.09663,1.51722 v 0.0217 l 0.001,0.0222 c 0.16376,2.02077 1.645931,3.42032 3.425631,4.24625 3.172799,1.47244 8.042175,1.49352 11.25461,0.003 1.7797,-0.82593 3.261871,-2.226 3.425631,-4.24677 l 0.0021,-0.0232 v -0.0212 c 2.3e-4,-0.55289 -0.0327,-1.05086 -0.0956,-1.50688 l -1.09399,5.1e-4 c 0.0653,0.42875 0.100343,0.91083 0.101803,1.47175 -0.12861,1.5365 -1.226289,2.61258 -2.796729,3.3414 -1.573587,0.73027 -3.573055,1.0428 -5.170227,1.04179 -1.597173,-0.001 -3.597124,-0.31358 -5.170744,-1.04386 -1.57044,-0.72882 -2.668118,-1.8049 -2.796728,-3.3414 0.001,-0.56543 0.0365,-1.05076 0.102836,-1.48208 z m 21.983671,0.0124 -1.09296,5.2e-4 c -0.0634,0.45742 -0.0969,0.95707 -0.0966,1.51205 v 0.0212 l 0.002,0.0227 c 0.16376,2.02077 1.64593,3.42033 3.42563,4.24626 3.19431,1.48244 8.06205,1.48138 11.25409,0 1.7797,-0.82593 3.26187,-2.22549 3.42563,-4.24626 l 0.002,-0.0232 v -0.0212 c 2.4e-4,-0.55498 -0.0332,-1.05463 -0.0966,-1.51205 h -1.09295 c 0.0658,0.43002 0.10033,0.91377 0.1018,1.47691 -0.12861,1.5365 -1.22629,2.61258 -2.79673,3.3414 -2.89097,1.34163 -7.45143,1.34073 -10.34045,0 -1.57044,-0.72882 -2.66812,-1.8049 -2.79673,-3.3414 0.001,-0.56314 0.0365,-1.04689 0.10232,-1.47691 z m 21.98522,0 -1.09296,5.2e-4 c -0.0639,0.45882 -0.0969,0.96015 -0.0966,1.51722 v 0.0217 l 0.001,0.0222 c 0.16376,2.02077 1.64593,3.42032 3.42563,4.24625 1.77971,0.82593 3.90081,1.14864 5.66788,1.08004 l -0.0408,-1.08365 c -1.59692,0.062 -3.59661,-0.25054 -5.17023,-0.98082 -1.57044,-0.72882 -2.66811,-1.8049 -2.79672,-3.3414 0.001,-0.56543 0.0365,-1.05076 0.10283,-1.48208 z" />
    </g>
  </g>
</svg>
